<svg width="21" height="21" viewBox="0 0 21 21" fill="none" xmlns="http://www.w3.org/2000/svg">
<path d="M10.5 0C4.71036 0 0 4.71036 0 10.5C0 16.2896 4.71036 21 10.5 21C16.2896 21 21 16.2896 21 10.5C21 4.71036 16.2896 0 10.5 0ZM10.5 16.1493C10.3003 16.1493 10.1051 16.0901 9.93909 15.9792C9.77306 15.8682 9.64365 15.7105 9.56724 15.526C9.49082 15.3416 9.47083 15.1386 9.50978 14.9427C9.54874 14.7469 9.6449 14.567 9.78609 14.4258C9.92729 14.2846 10.1072 14.1884 10.303 14.1495C10.4989 14.1105 10.7019 14.1305 10.8864 14.2069C11.0708 14.2833 11.2285 14.4127 11.3395 14.5788C11.4504 14.7448 11.5096 14.94 11.5096 15.1397C11.5096 15.4075 11.4032 15.6643 11.2139 15.8536C11.0246 16.0429 10.7678 16.1493 10.5 16.1493ZM11.5964 5.9951L11.3067 12.1538C11.3067 12.368 11.2216 12.5734 11.0701 12.7249C10.9186 12.8763 10.7132 12.9614 10.499 12.9614C10.2848 12.9614 10.0793 12.8763 9.92787 12.7249C9.77639 12.5734 9.6913 12.368 9.6913 12.1538L9.40154 5.99813V5.9956C9.39519 5.84766 9.41884 5.69995 9.47108 5.56139C9.52332 5.42283 9.60306 5.29627 9.7055 5.18934C9.80794 5.08241 9.93096 4.99732 10.0672 4.93919C10.2033 4.88105 10.3499 4.85109 10.498 4.85109C10.6461 4.85109 10.7926 4.88105 10.9288 4.93919C11.065 4.99732 11.188 5.08241 11.2905 5.18934C11.3929 5.29627 11.4726 5.42283 11.5249 5.56139C11.5771 5.69995 11.6008 5.84766 11.5944 5.9956L11.5964 5.9951Z" fill="white"/>
</svg>
