<svg width="103" height="78" viewBox="0 0 103 78" fill="none" xmlns="http://www.w3.org/2000/svg">
<mask id="mask0_298_2206" style="mask-type:alpha" maskUnits="userSpaceOnUse" x="0" y="0" width="103" height="78">
<rect width="103" height="78" fill="#D9D9D9"/>
</mask>
<g mask="url(#mask0_298_2206)">
<path d="M56.4817 43.5894L78.5739 21.4973C79.6224 20.4506 80.2121 19.0303 80.2134 17.5489C80.2148 16.0674 79.6275 14.6461 78.5809 13.5976C77.5342 12.5491 76.1139 11.9593 74.6325 11.958C73.151 11.9567 71.7297 12.544 70.6812 13.5906L48.589 35.6828L26.4968 13.5906C25.4483 12.5421 24.0263 11.9531 22.5435 11.9531C21.0607 11.9531 19.6387 12.5421 18.5902 13.5906C17.5417 14.6391 16.9526 16.0611 16.9526 17.5439C16.9526 19.0267 17.5417 20.4488 18.5902 21.4973L40.6823 43.5894L18.5902 65.6816C17.5417 66.7301 16.9526 68.1521 16.9526 69.6349C16.9526 71.1177 17.5417 72.5398 18.5902 73.5883C19.6387 74.6368 21.0607 75.2258 22.5435 75.2258C24.0263 75.2258 25.4483 74.6368 26.4968 73.5883L48.589 51.4961L70.6812 73.5883C71.7297 74.6368 73.1517 75.2258 74.6345 75.2258C76.1173 75.2258 77.5393 74.6368 78.5878 73.5883C79.6363 72.5398 80.2254 71.1177 80.2254 69.6349C80.2254 68.1521 79.6363 66.7301 78.5878 65.6816L56.4817 43.5894Z" fill="#FF6767"/>
<rect x="85" y="10.6737" width="13.9525" height="4" rx="2" transform="rotate(-49.9072 85 10.6737)" fill="#FF6767"/>
<rect x="93" y="22.7752" width="9.46084" height="4" rx="2" transform="rotate(-13.1177 93 22.7752)" fill="#FF6767"/>
<rect width="13.9525" height="4" rx="2" transform="matrix(-0.922809 -0.385258 -0.385258 0.922809 13.9976 9.48935)" fill="#FF6767"/>
<rect width="9.46084" height="4" rx="2" transform="matrix(-0.969745 0.244118 0.244118 0.969745 12.4258 23.9107)" fill="#FF6767"/>
</g>
</svg>
