<svg width="50" height="23" viewBox="0 0 50 23" fill="none" xmlns="http://www.w3.org/2000/svg">
<path fill-rule="evenodd" clip-rule="evenodd" d="M0 6.14453V7.31179C0 8.75759 1.18121 10.7804 3.18069 11.4701C3.18069 11.4701 3.19553 11.4759 3.22321 11.4867C3.19554 11.4975 3.18069 11.5033 3.18069 11.5033C1.18121 12.193 0 14.2225 0 15.6616V16.8289C0 20.6092 3.10811 22.4596 6.15022 22.4596C7.98263 22.4596 9.76597 21.7136 10.9383 20.2572C12.1106 21.7179 13.8966 22.4662 15.7318 22.4662C18.7739 22.4662 21.882 20.6092 21.882 16.8355V15.6683C21.882 14.2291 20.7008 12.1997 18.7079 11.5099C18.7073 11.5093 18.6857 11.5006 18.6466 11.485C18.6822 11.4711 18.7014 11.4635 18.7014 11.4635C20.7009 10.7738 21.8755 8.75096 21.8755 7.30516V6.14453C21.8821 2.37085 18.774 0.513855 15.7319 0.513855C13.8917 0.513855 12.1129 1.26103 10.9411 2.71962C9.76917 1.26103 7.99042 0.513855 6.15022 0.513855C3.10811 0.513855 0 2.37085 0 6.14453ZM12.307 7.03987C12.307 7.03987 12.3101 6.95207 12.307 6.79925V6.68837C12.4654 4.42018 14.1086 3.33251 15.7649 3.33251C17.441 3.33251 19.1502 4.29417 19.1502 6.14453V7.31179C19.1502 8.82391 17.6192 9.9978 15.5933 10.2631C15.5933 10.2631 15.5933 10.2654 15.5932 10.2698C15.5932 10.2698 15.5932 10.2698 15.5932 10.2697C15.5799 10.2697 15.58 10.8881 15.5833 11.5023C15.5801 12.1061 15.5802 12.7038 15.5931 12.7038C15.5932 12.7081 15.5932 12.7104 15.5932 12.7104C17.6125 12.9823 19.15 14.1495 19.15 15.6617V16.8289C19.15 18.6859 17.4409 19.6476 15.7648 19.6476C14.1291 19.6476 12.4934 18.5869 12.3003 16.376C12.3129 16.101 12.307 15.9336 12.307 15.9336V7.03987ZM9.58162 6.60085C9.39343 4.39219 7.75211 3.33251 6.11723 3.33251C4.44109 3.33251 2.73197 4.28754 2.73197 6.14453V7.31842C2.73197 8.83055 4.26292 10.0044 6.2888 10.2697C6.30202 10.2664 6.302 10.879 6.29868 11.4913C6.302 12.1043 6.30202 12.717 6.2888 12.7103C4.26292 12.9756 2.73197 14.1495 2.73197 15.6616V16.8289C2.73197 18.6859 4.44109 19.6476 6.11723 19.6476C7.77356 19.6476 9.4167 18.5731 9.57508 16.305V16.1876C9.57176 16.0306 9.57494 15.9402 9.57494 15.9402L9.57508 15.9402V7.03987V6.80112C9.57619 6.7433 9.57821 6.67613 9.58162 6.60085ZM29.5308 0.52713C26.5679 0.52713 23.8623 2.12547 23.8623 5.64714V17.2202C23.8623 20.7352 26.6603 22.4331 29.5902 22.4331C32.3947 22.4331 35.2917 20.7419 35.2917 17.2202V13.221C35.2917 9.76569 32.5201 8.16735 29.5902 8.16735C28.607 8.16735 26.8846 8.7775 26.3435 10.0575L26.3765 5.6405C26.3765 3.94268 27.9075 3.0805 29.5308 3.0805C30.4877 3.0805 31.5039 3.40547 32.6191 4.45998L33.0942 3.98247H33.1272C33.1498 3.96129 33.1703 3.94149 33.1893 3.92315C33.2537 3.86109 33.3007 3.81573 33.3516 3.79014L33.3516 3.79012C33.3814 3.76024 33.4325 3.70885 33.4906 3.67472C33.4877 3.67816 33.4934 3.67525 33.51 3.66413C33.5034 3.66741 33.497 3.67097 33.4906 3.67472C33.5007 3.66241 33.6194 3.56876 33.7343 3.47814L33.7346 3.47792L33.7346 3.47787L33.7348 3.47771L33.7397 3.4739C33.7824 3.44019 33.8243 3.40709 33.8597 3.37895L33.8663 3.37364C34.0289 3.2429 34.1873 3.11561 34.4998 2.76879C32.6851 0.878633 31.1871 0.52713 29.5308 0.52713ZM29.5902 10.7075C31.2135 10.7075 32.7445 11.5365 32.7445 13.2343V17.2401C32.6785 18.9711 31.0882 19.8664 29.5572 19.8664C27.9669 19.8664 26.3765 18.9711 26.3765 17.2401V13.3338C26.3765 11.5365 27.9339 10.7075 29.5902 10.7075ZM38.4049 5.71346C38.4049 2.23822 41.2557 0.533768 44.2318 0.533768C47.0826 0.533768 49.9993 2.23822 49.9993 5.71346V17.2069C49.9993 20.7817 47.0826 22.4861 44.2318 22.4861C41.2557 22.4861 38.4049 20.7817 38.4049 17.2069V5.71346ZM40.9719 17.2003C40.9719 18.9711 42.5755 19.8731 44.2384 19.8731C45.809 19.8731 47.4389 18.9711 47.4389 17.2003V5.71346C47.4389 4.04216 45.809 3.14019 44.2384 3.14019C42.5755 3.14019 40.9719 4.04216 40.9719 5.71346V17.2003Z" fill="#FBFBFD"/>
</svg>
