<svg width="375" height="223" viewBox="0 0 375 223" fill="none" xmlns="http://www.w3.org/2000/svg">
<g clip-path="url(#clip0_1325_4039)">
<path d="M116.667 154.218C116.667 165.766 113.244 177.055 106.831 186.657C100.418 196.259 91.3027 203.743 80.6385 208.16C69.9743 212.578 58.2402 213.733 46.9204 211.477C35.6005 209.222 25.2035 203.658 17.0444 195.489C8.88522 187.321 3.33054 176.914 1.0829 165.587C-1.16474 154.259 -0.00435843 142.519 4.41728 131.852C8.83891 121.184 16.3232 112.068 25.9233 105.657C35.5235 99.2457 46.8084 95.8272 58.3505 95.8339C73.8174 95.8519 88.6452 102.01 99.5788 112.956C110.512 123.902 116.658 138.742 116.667 154.218ZM4.58499 154.218C4.58499 164.878 7.74426 175.298 13.6633 184.162C19.5823 193.025 27.9953 199.933 37.8382 204.013C47.6812 208.092 58.5121 209.159 68.9614 207.08C79.4107 205 89.0089 199.867 96.5424 192.329C104.076 184.791 109.206 175.188 111.285 164.733C113.363 154.277 112.296 143.44 108.219 133.592C104.142 123.743 97.238 115.326 88.3795 109.403C79.5211 103.481 69.1064 100.32 58.4524 100.32C44.1537 100.311 30.4366 105.983 20.3164 116.09C10.1962 126.197 4.5011 139.911 4.48309 154.218L4.58499 154.218Z" fill="#1A79D1"/>
<path d="M93.9116 183.409C93.9116 189.141 91.6357 194.639 87.5847 198.692C83.5337 202.745 78.0393 205.023 72.3103 205.023C66.5813 205.023 61.0869 202.745 57.0359 198.692C52.9848 194.639 50.709 189.141 50.709 183.409C50.718 177.674 53.0014 172.176 57.0578 168.124C61.1142 164.072 66.6121 161.795 72.3442 161.795C78.0646 161.813 83.5451 164.097 87.5868 168.148C91.6286 172.198 93.9026 177.685 93.9116 183.409ZM52.2034 183.409C52.2034 188.745 54.3218 193.862 58.0926 197.635C61.8633 201.408 66.9776 203.527 72.3103 203.527C77.6429 203.527 82.7572 201.408 86.528 197.635C90.2988 193.862 92.4172 188.745 92.4172 183.409C92.4172 178.073 90.2988 172.956 86.528 169.183C82.7572 165.41 77.6429 163.291 72.3103 163.291C66.9776 163.291 61.8633 165.41 58.0926 169.183C54.3218 172.956 52.2034 178.073 52.2034 183.409Z" fill="#1A79D1"/>
<path d="M67.0114 183.409C67.0136 187.985 65.6579 192.459 63.116 196.263C60.5741 200.068 56.9605 203.031 52.7333 204.779C48.5061 206.526 43.8556 206.978 39.3714 206.077C34.8871 205.177 30.771 202.965 27.5448 199.721C25.3909 197.586 23.6815 195.046 22.5155 192.246C21.3495 189.446 20.7501 186.442 20.752 183.409C20.7609 177.283 23.1971 171.41 27.5265 167.078C31.8558 162.747 37.7251 160.309 43.8477 160.3C49.9703 160.309 55.8396 162.747 60.1689 167.078C64.4983 171.41 66.9344 177.283 66.9434 183.409L67.0114 183.409ZM25.2692 183.409C25.2871 188.342 27.2538 193.069 30.7404 196.557C34.2271 200.046 38.9508 202.014 43.8817 202.032C48.8211 202.032 53.5588 200.071 57.0547 196.579C60.5506 193.088 62.5191 188.351 62.5281 183.409C62.5281 178.452 60.56 173.698 57.0567 170.192C53.5535 166.687 48.802 164.718 43.8477 164.718C38.8934 164.718 34.1419 166.687 30.6387 170.192C27.1354 173.698 25.1673 178.452 25.1673 183.409L25.2692 183.409Z" fill="#1A79D1"/>
<path d="M95.4053 125.4C95.4053 131.528 92.972 137.406 88.6407 141.74C84.3095 146.074 78.435 148.508 72.3096 148.508C66.1842 148.508 60.3097 146.074 55.9785 141.74C51.6472 137.406 49.2139 131.528 49.2139 125.4C49.2139 119.271 51.6472 113.393 55.9785 109.059C60.3097 104.725 66.1842 102.291 72.3096 102.291C78.435 102.291 84.3095 104.725 88.6407 109.059C92.972 113.393 95.4053 119.271 95.4053 125.4ZM53.6972 125.4C53.6972 130.357 55.6653 135.111 59.1685 138.616C62.6718 142.121 67.4232 144.091 72.3775 144.091C77.3319 144.091 82.0833 142.121 85.5865 138.616C89.0898 135.111 91.0579 130.357 91.0579 125.4C91.0579 120.443 89.0898 115.688 85.5865 112.183C82.0833 108.678 77.3319 106.709 72.3775 106.709C67.4232 106.709 62.6718 108.678 59.1685 112.183C55.6653 115.688 53.6972 120.443 53.6972 125.4Z" fill="#1A79D1"/>
<path d="M65.5178 125.399C65.2964 130.988 62.9219 136.273 58.8919 140.149C54.8619 144.025 49.4892 146.189 43.8995 146.189C38.3099 146.189 32.9372 144.025 28.9072 140.149C24.8772 136.273 22.5027 130.988 22.2812 125.399C22.3082 119.673 24.5984 114.189 28.6519 110.146C32.7054 106.103 38.193 103.829 43.9165 103.82C49.6428 103.829 55.132 106.109 59.181 110.16C63.2301 114.211 65.5088 119.704 65.5178 125.433L65.5178 125.399ZM23.7757 125.399C23.7936 130.729 25.9177 135.836 29.6846 139.605C33.4515 143.374 38.5554 145.5 43.8826 145.517C49.2184 145.518 54.3361 143.399 58.1123 139.627C61.8885 135.855 64.0144 130.738 64.0234 125.399C63.81 120.202 61.5965 115.289 57.8458 111.687C54.0952 108.086 49.0981 106.074 43.8995 106.074C38.701 106.074 33.7038 108.086 29.9532 111.687C26.2026 115.289 23.9891 120.202 23.7757 125.399Z" fill="#1A79D1"/>
<path d="M50.437 138.585C50.439 143.921 48.5922 149.093 45.2112 153.221C41.8302 157.348 37.124 160.175 31.8938 161.221C26.6637 162.266 21.233 161.466 16.5265 158.955C11.82 156.445 8.12864 152.38 6.08092 147.452C4.03321 142.525 3.75576 137.039 5.29583 131.93C6.83589 126.821 10.0982 122.404 14.5274 119.431C18.9566 116.458 24.2787 115.113 29.5876 115.625C34.8965 116.137 39.864 118.474 43.6442 122.239C45.8047 124.382 47.5178 126.934 48.684 129.746C49.8501 132.558 50.446 135.574 50.437 138.619L50.437 138.585ZM8.7628 138.585C8.7628 143.527 10.7227 148.267 14.2122 151.765C17.7017 155.263 22.4358 157.233 27.3752 157.242C32.3061 157.224 37.0298 155.256 40.5165 151.767C44.0031 148.279 45.9698 143.552 45.9877 138.619C45.9877 133.662 44.0196 128.907 40.5163 125.402C37.0131 121.897 32.2617 119.928 27.3073 119.928C22.353 119.928 17.6016 121.897 14.0983 125.402C10.5951 128.907 8.62695 133.662 8.62695 138.619L8.7628 138.585Z" fill="#1A79D1"/>
<path d="M48.9425 170.019C48.7212 175.599 46.3504 180.876 42.3267 184.745C38.3031 188.615 32.9389 190.776 27.3581 190.776C21.7774 190.776 16.4132 188.615 12.3895 184.745C8.3659 180.876 5.99507 175.599 5.77382 170.019C5.6585 167.111 6.13139 164.21 7.16414 161.489C8.19689 158.768 9.76822 156.284 11.7839 154.185C13.7995 152.087 16.218 150.417 18.8942 149.277C21.5705 148.137 24.4493 147.549 27.3581 147.549C30.267 147.549 33.1458 148.137 35.822 149.277C38.4983 150.417 40.9167 152.087 42.9324 154.185C44.9481 156.284 46.5194 158.768 47.5521 161.489C48.5849 164.21 49.0578 167.111 48.9425 170.019ZM7.26825 170.019C7.26825 175.355 9.38664 180.472 13.1574 184.245C16.9282 188.018 22.0424 190.138 27.3751 190.138C32.7078 190.138 37.8221 188.018 41.5928 184.245C45.3636 180.472 47.482 175.355 47.482 170.019C47.482 164.684 45.3636 159.566 41.5928 155.794C37.8221 152.021 32.7078 149.901 27.3751 149.901C22.0483 149.901 16.9392 152.016 13.1694 155.782C9.39962 159.547 7.27725 164.656 7.26825 169.985L7.26825 170.019Z" fill="#1A79D1"/>
<path d="M110.927 138.585C110.93 141.422 110.37 144.232 109.28 146.851C108.19 149.47 106.591 151.847 104.576 153.844C102.588 155.867 100.214 157.47 97.5937 158.556C94.9737 159.642 92.162 160.189 89.3262 160.164C86.491 160.164 83.6837 159.605 81.0648 158.519C78.446 157.432 76.0669 155.839 74.0637 153.832C72.0606 151.825 70.4726 149.442 69.3908 146.82C68.3089 144.197 67.7544 141.388 67.7588 138.551C67.9801 132.971 70.3509 127.694 74.3746 123.825C78.3982 119.955 83.7624 117.794 89.3431 117.794C94.9239 117.794 100.288 119.955 104.312 123.825C108.335 127.694 110.706 132.971 110.927 138.551L110.927 138.585ZM69.2193 138.585C69.2372 143.915 71.3613 149.022 75.1282 152.791C78.8951 156.56 83.999 158.685 89.3262 158.703C94.6533 158.685 99.7572 156.56 103.524 152.791C107.291 149.022 109.415 143.915 109.433 138.585C109.433 133.249 107.315 128.132 103.544 124.359C99.7731 120.586 94.6588 118.467 89.3262 118.467C83.9935 118.467 78.8792 120.586 75.1085 124.359C71.3377 128.132 69.2193 133.249 69.2193 138.585Z" fill="#1A79D1"/>
<path d="M112.423 170.02C112.542 173.127 112.033 176.226 110.927 179.131C109.821 182.037 108.14 184.689 105.985 186.93C103.83 189.17 101.246 190.952 98.3863 192.169C95.5269 193.387 92.4513 194.014 89.3438 194.014C86.2363 194.014 83.1607 193.387 80.3013 192.169C77.4418 190.952 74.8573 189.17 72.7025 186.93C70.5477 184.689 68.8669 182.037 67.7608 179.131C66.6546 176.226 66.1459 173.127 66.265 170.02C66.1459 166.913 66.6546 163.813 67.7607 160.908C68.8669 158.002 70.5477 155.35 72.7025 153.109C74.8573 150.869 77.4418 149.087 80.3013 147.869C83.1607 146.652 86.2363 146.025 89.3438 146.025C92.4513 146.025 95.5269 146.652 98.3863 147.869C101.246 149.087 103.83 150.869 105.985 153.109C108.14 155.35 109.821 158.002 110.927 160.908C112.033 163.813 112.542 166.913 112.423 170.02ZM70.7144 170.02C70.7144 174.977 72.6825 179.731 76.1857 183.236C79.689 186.741 84.4404 188.71 89.3947 188.71C94.3491 188.71 99.1005 186.741 102.604 183.236C106.107 179.731 108.075 174.977 108.075 170.02C108.075 165.062 106.107 160.308 102.604 156.803C99.1005 153.298 94.3491 151.329 89.3947 151.329C84.4404 151.329 79.689 153.298 76.1857 156.803C72.6825 160.308 70.7144 165.062 70.7144 170.02Z" fill="#1A79D1"/>
<path d="M374.999 114.355L304.014 185.38L233.062 114.355L304.014 43.1591L374.999 114.355ZM304.014 178.923L368.546 114.355L304.014 49.7859L239.482 114.355L304.014 178.923Z" fill="#EB5B26"/>
<path d="M354.214 134.439L327.79 160.844L301.399 134.439L327.79 108L354.214 134.439ZM327.79 154.523L347.863 134.439L327.79 114.355L307.717 134.439L327.79 154.523Z" fill="#EB5B26"/>
<path d="M354.214 114.083L327.79 140.488L301.399 114.083L327.79 87.6434L354.214 114.083ZM327.79 134.167L347.863 114.083L327.79 93.9643L307.717 114.083L327.79 134.167Z" fill="#EB5B26"/>
<path d="M354.214 94.1346L327.79 120.54L301.399 94.1346L327.79 67.6953L354.214 94.1346ZM327.79 114.525L347.863 94.4406L327.79 74.3562L307.717 94.1346L327.79 114.525Z" fill="#EB5B26"/>
<path d="M306.018 134.439L279.627 160.844L253.203 134.439L279.627 108L306.018 134.439ZM279.627 154.523L299.7 134.439L279.627 114.355L259.52 134.439L279.627 154.523Z" fill="#EB5B26"/>
<path d="M306.018 114.083L279.627 140.488L253.203 114.083L279.627 87.6434L306.018 114.083ZM279.627 134.167L299.7 114.083L279.627 93.9643L259.52 114.083L279.627 134.167Z" fill="#EB5B26"/>
<path d="M306.018 94.1346L279.627 120.54L253.203 94.1346L279.627 67.6953L306.018 94.1346ZM279.627 114.525L299.7 94.4406L279.627 74.3562L259.52 94.1346L279.627 114.525Z" fill="#EB5B26"/>
<path d="M251.71 20.5262L211.496 223L108.312 202.61L148.526 4.40186e-05L251.71 20.5262ZM207.964 217.631L246.445 23.9246L152.059 5.1656L113.577 198.872L207.964 217.631Z" fill="#FFDD08"/>
<path d="M208.336 177.7L174.746 199.28L162.519 181.37L196.109 159.791L208.336 177.7ZM176.104 193.163L202.189 176.443L194.954 165.908L168.734 182.492L176.104 193.163Z" fill="#FFDD08"/>
<path d="M198.386 163.427L180.113 175.151L157.459 142.221L175.732 130.497L198.386 163.427ZM181.404 169.034L192.137 162.237L174.577 136.716L163.844 143.512L181.404 169.034Z" fill="#FFDD08"/>
<path d="M178.789 196.934L160.516 208.659L137.896 175.695L156.168 163.936L178.789 196.934ZM161.806 202.576L172.539 195.779L154.98 170.257L144.247 177.054L161.806 202.576Z" fill="#FFDD08"/>
<path d="M173.762 157.649L140.171 179.093L127.842 161.184L161.466 139.604L173.762 157.649ZM141.394 173.146L167.478 156.392L160.244 145.857L134.159 162.611L141.394 173.146Z" fill="#FFDD08"/>
<path d="M219.579 119.316L185.988 140.896L173.659 123.021L207.284 101.407L219.579 119.316ZM187.211 134.915L213.465 117.923L206.231 107.388L180.146 124.142L187.211 134.915Z" fill="#FFDD08"/>
<path d="M209.627 105.043L191.32 116.768L168.7 83.9396L186.973 72.1812L209.627 105.043ZM192.645 110.685L203.378 103.888L185.818 78.3662L175.085 85.1629L192.645 110.685Z" fill="#FFDD08"/>
<path d="M190.03 138.551L171.757 150.275L149.137 117.379L167.41 105.621L190.03 138.551ZM173.048 144.192L183.814 137.395L166.255 111.84L155.488 118.637L173.048 144.192Z" fill="#FFDD08"/>
<path d="M185.004 99.2661L151.379 120.846L139.084 102.97L172.709 81.3567L185.004 99.2661ZM152.636 114.763L178.686 98.0087L171.452 87.4737L145.537 104.33L152.636 114.763Z" fill="#FFDD08"/>
<path d="M231.094 61.4425L197.469 83.022L185.174 65.1128L218.765 43.5331L231.094 61.4425ZM198.692 76.905L224.776 60.1511L217.542 49.6501L191.457 66.4042L198.692 76.905Z" fill="#FFDD08"/>
<path d="M221.108 47.1691L202.835 58.8934L180.215 25.9634L198.488 14.239L221.108 47.1691ZM204.126 52.7764L214.858 45.9797L197.333 20.4581L186.566 27.2548L204.126 52.7764Z" fill="#FFDD08"/>
<path d="M201.544 80.5414L183.271 92.2657L160.617 59.3697L178.89 47.6113L201.544 80.5414ZM184.562 86.1826L195.295 79.3859L177.735 53.8644L167.002 60.6611L184.562 86.1826Z" fill="#FFDD08"/>
<path d="M196.483 41.3916L162.893 62.9713L150.598 45.0619L184.188 23.4825L196.483 41.3916ZM164.115 56.7523L190.2 39.9984L182.898 29.5654L156.813 46.3193L164.115 56.7523Z" fill="#FFDD08"/>
</g>
<defs>
<clipPath id="clip0_1325_4039">
<rect width="223" height="375" fill="white" transform="translate(0 223) rotate(-90)"/>
</clipPath>
</defs>
</svg>
