<svg width="60" height="60" viewBox="0 0 60 60" fill="none" xmlns="http://www.w3.org/2000/svg">
<rect width="60" height="60" rx="30" fill="#4EABE5"/>
<path d="M45.1388 19.1934C44.929 18.9819 44.6795 18.814 44.4046 18.6995C44.1296 18.585 43.8348 18.526 43.5369 18.526C43.2391 18.526 42.9442 18.585 42.6693 18.6995C42.3944 18.814 42.1448 18.9819 41.9351 19.1934L25.1272 36.0238L18.0656 28.9397C17.8478 28.7293 17.5908 28.5639 17.3091 28.4529C17.0274 28.3419 16.7266 28.2875 16.4239 28.2927C16.1212 28.298 15.8224 28.3628 15.5447 28.4834C15.2671 28.6041 15.0159 28.7783 14.8055 28.9961C14.5952 29.2139 14.4298 29.4709 14.3188 29.7526C14.2078 30.0343 14.1533 30.3351 14.1585 30.6378C14.1638 30.9405 14.2286 31.2393 14.3493 31.5169C14.47 31.7946 14.6442 32.0458 14.8619 32.2562L23.5253 40.9196C23.7351 41.131 23.9846 41.2989 24.2595 41.4134C24.5345 41.5279 24.8293 41.5869 25.1272 41.5869C25.425 41.5869 25.7199 41.5279 25.9948 41.4134C26.2697 41.2989 26.5193 41.131 26.729 40.9196L45.1388 22.5098C45.3678 22.2985 45.5505 22.0421 45.6755 21.7567C45.8005 21.4713 45.8651 21.1632 45.8651 20.8516C45.8651 20.54 45.8005 20.2318 45.6755 19.9464C45.5505 19.661 45.3678 19.4046 45.1388 19.1934V19.1934Z" fill="white"/>
</svg>
