<svg width="89" height="95" viewBox="0 0 89 95" fill="none" xmlns="http://www.w3.org/2000/svg">
<path d="M68.9764 60.1464C68.1482 55.2725 63.2454 52.0232 58.3745 53.1178C53.5405 54.205 50.4857 59.1721 51.7833 63.916C52.6877 67.2242 54.87 69.3102 58.1582 70.2673C58.431 70.3458 58.8635 70.2207 58.8463 70.7778C58.7456 74.0467 59.0896 77.3328 58.6571 80.587C57.8707 86.5113 52.4714 91.0907 46.3668 91.1005C40.2156 91.1103 34.8114 86.5358 34.0078 80.5624C33.59 77.4579 33.934 74.3289 33.8185 71.2122C33.7964 70.5839 33.9979 70.4195 34.6123 70.3238C40.5645 69.3985 45.4059 64.0362 45.5632 58.0334C45.6861 53.2945 45.6369 48.5482 45.5755 43.8043C45.5386 40.9035 43.1106 38.4617 40.2229 38.231C39.0875 38.1402 38.3503 38.631 38.2544 39.5366C38.161 40.4397 38.7754 41.0361 39.9305 41.1588C41.4689 41.3232 42.6363 42.484 42.6436 44.0056C42.6682 48.6562 42.7444 53.3117 42.6092 57.9573C42.4593 63.0669 38.0332 67.3542 32.9215 67.5776C26.984 67.8353 22.1328 63.2828 22.0738 57.3364C22.0321 53.1129 22.064 48.8917 22.064 44.6682C22.064 42.403 22.8602 41.4925 25.1384 41.1416C26.173 40.9821 26.7457 40.0274 26.3451 39.1169C26.0477 38.442 25.5046 38.2064 24.7919 38.2138C21.7371 38.2481 19.1518 40.8741 19.1321 44.0571C19.1026 48.585 19.0879 53.1153 19.137 57.6432C19.2034 63.8694 24.0178 69.3838 30.1838 70.3287C30.7908 70.4219 30.9112 70.6354 30.9038 71.1901C30.8768 73.7301 30.8129 76.2726 30.9112 78.8102C31.1545 85.1468 34.1798 89.7262 39.8371 92.5975C41.26 93.319 42.8329 93.5326 44.3172 94.0406H47.9937C48.3353 93.697 48.7949 93.8712 49.193 93.7902C56.6665 92.2491 61.7585 86.0572 61.7831 78.4396C61.7905 76.0223 61.8102 73.6049 61.7659 71.1876C61.7561 70.5839 61.933 70.3827 62.5081 70.228C67.0718 69.001 69.7653 64.7774 68.9764 60.1464ZM61.7831 67.3518C61.7831 66.7849 61.7831 66.2965 61.7831 65.8057C61.7831 64.9664 61.7659 64.2399 62.5425 63.5332C63.6754 62.5 63.4543 60.6618 62.3238 59.5918C61.2179 58.5439 59.5566 58.5071 58.3991 59.5059C57.2194 60.5244 56.8901 62.3797 58.0034 63.4276C58.9004 64.2719 58.8365 65.1529 58.8414 66.1345C58.8414 66.5321 58.8414 66.9272 58.8414 67.3322C56.1356 66.7972 54.1868 64.0485 54.4473 61.1772C54.7127 58.2494 57.2194 55.9081 60.1538 55.8492C63.2085 55.7879 65.7791 58.0089 66.1674 61.0422C66.5287 63.8841 64.6437 66.6376 61.7856 67.3518H61.7831Z" fill="#95E0DC"/>
<path d="M88.256 11.8562C88.256 8.43754 85.6854 5.91959 82.2472 5.89505C80.1952 5.88033 78.1382 5.84352 76.0886 5.91714C75.2112 5.94904 74.9384 5.74535 75.0023 4.84223C75.135 2.97463 74.3781 1.48496 72.7168 0.569568C69.6891 -1.09925 66.2215 1.08985 66.1969 4.65571C66.1903 5.48194 65.7758 5.89505 64.9534 5.89505H23.7646C22.6702 5.89505 22.1025 5.3576 22.0615 4.28268C21.9927 2.48625 20.8598 0.888606 19.169 0.297159C17.375 -0.331101 15.7874 0.0664695 14.4554 1.40888C13.492 2.38072 13.1209 3.60289 13.2561 4.93794C13.3421 5.77971 13.0398 5.93677 12.2608 5.91223C10.3021 5.85333 8.33851 5.89014 6.37737 5.8926C2.44527 5.89751 0 8.31974 0 12.2267C0 32.4881 0 52.7495 0 73.0109C0 76.9154 2.44773 79.345 6.37492 79.3475C12.8727 79.3499 19.368 79.3475 25.8658 79.3475C26.1411 79.3475 26.4262 79.3769 26.6916 79.3229C27.4362 79.1732 27.8933 78.7069 27.9327 77.9412C27.9695 77.2148 27.5837 76.7068 26.9005 76.4909C26.5908 76.3927 26.2345 76.4148 25.9002 76.4148C19.373 76.4099 12.8457 76.4148 6.31839 76.4123C4.07464 76.4123 2.9417 75.2711 2.9417 73.0158C2.9417 56.8258 2.94662 40.6334 2.92204 24.4434C2.92204 23.6802 3.10144 23.5035 3.86329 23.506C17.2865 23.533 30.7097 23.5256 44.1329 23.5256C57.5561 23.5256 70.9793 23.528 84.4025 23.5158C85.0316 23.5158 85.3438 23.5501 85.3413 24.3575C85.3118 40.6089 85.3192 56.8626 85.3167 73.114C85.3167 75.2417 84.1494 76.4123 82.026 76.4148C76.8775 76.4197 71.7289 76.4148 66.5803 76.4172C65.4056 76.4172 64.7445 76.94 64.7297 77.8603C64.7125 78.7904 65.3785 79.3524 66.5311 79.3524C71.7706 79.3573 77.0126 79.3671 82.2521 79.3499C85.6854 79.3377 88.2511 76.8001 88.2535 73.3815C88.2658 52.8747 88.2658 32.3679 88.2535 11.8611L88.256 11.8562ZM69.1435 4.62626C69.1558 3.61516 69.7186 2.97953 70.5787 2.9599C71.4733 2.94027 72.0729 3.59552 72.0778 4.65326C72.0901 6.94297 72.0877 9.23023 72.0778 11.5199C72.0729 12.5875 71.4905 13.2427 70.5959 13.2329C69.7038 13.2231 69.1509 12.5703 69.1411 11.4905C69.1312 10.3616 69.1411 9.23268 69.1411 8.10378C69.1411 6.94542 69.1312 5.78462 69.1435 4.62626ZM16.1855 4.63608C16.1904 3.62252 16.7507 2.9869 17.6109 2.9599C18.5054 2.93291 19.1075 3.59307 19.1198 4.6459C19.1346 5.80425 19.1223 6.96506 19.1223 8.12341C19.1223 9.28177 19.137 10.4426 19.1174 11.6009C19.1026 12.5973 18.5079 13.2354 17.6453 13.2305C16.7802 13.228 16.1904 12.5924 16.1855 11.5887C16.1708 9.2695 16.1732 6.95033 16.1855 4.63117V4.63608ZM84.55 20.5929C77.9932 20.5782 71.4389 20.5831 64.8821 20.5831H44.1108C30.6925 20.5831 17.2742 20.5757 3.85591 20.6027C3.08178 20.6027 2.9073 20.4113 2.92204 19.6579C2.97365 17.1203 2.93679 14.5803 2.94416 12.0402C2.94907 10.0499 4.15574 8.84002 6.13899 8.83266C8.25249 8.8253 10.3685 8.86211 12.4795 8.81303C13.1627 8.79585 13.293 9.02654 13.2512 9.63762C13.1996 10.3984 13.2192 11.1665 13.2463 11.9322C13.3298 14.3029 15.3057 16.1877 17.6772 16.1754C20.007 16.1632 21.9583 14.3029 22.0542 11.9715C22.0886 11.115 22.0837 10.2585 22.0566 9.40202C22.0443 8.98727 22.1303 8.75658 22.5997 8.82775C22.7497 8.84984 22.9045 8.8302 23.0593 8.8302C37.1215 8.8302 51.1812 8.84002 65.2434 8.80812C66.0789 8.80812 66.2485 9.0339 66.219 9.80941C66.1822 10.8107 66.0789 11.8243 66.3394 12.8231C66.8998 14.9778 68.91 16.3939 71.085 16.1558C73.2575 15.9178 74.9483 14.0919 75.0171 11.8881C75.0417 11.0929 75.0687 10.2929 75.0097 9.50264C74.963 8.89647 75.1989 8.81057 75.7322 8.81793C77.9072 8.84738 80.0821 8.81793 82.2571 8.83511C84.0757 8.84984 85.3044 10.0769 85.3167 11.8979C85.3339 14.5606 85.2946 17.2209 85.3388 19.8837C85.3511 20.5512 85.0857 20.5954 84.55 20.5954V20.5929Z" fill="#95E0DC"/>
</svg>
