<svg width="90" height="35" viewBox="0 0 90 35" fill="none" xmlns="http://www.w3.org/2000/svg">
<g clip-path="url(#clip0_1502_559)">
<path d="M19.1992 0.0302162C17.4719 0.145678 15.8694 0.88518 14.5969 2.15526C14.1893 2.56212 13.9647 2.83428 13.6182 3.35386C12.8308 4.52496 12.4316 5.72356 12.3345 7.20532C12.2541 8.44515 12.4759 9.76746 12.9472 10.8314C13.3881 11.8293 14.1006 12.8217 14.8575 13.4897C16.0524 14.5454 17.3666 15.1447 18.8859 15.3234C19.1631 15.3563 19.9838 15.3673 23.3523 15.3838L27.475 15.4031V15.0017V14.5976L25.2515 14.5921L23.028 14.5839L23.3607 14.3859C24.9327 13.454 26.1581 11.9392 26.7264 10.2266C27.1756 8.87676 27.2504 7.31253 26.9316 5.89676C26.6294 4.54696 25.9252 3.26588 24.9243 2.24323C23.9429 1.24256 22.7784 0.549793 21.5281 0.233648C21.09 0.120936 20.7046 0.0632057 20.1779 0.0274677C19.7398 -0.00277233 19.6788 -0.00277233 19.1992 0.0302162ZM20.3997 0.824701C21.9079 0.984147 23.2775 1.66592 24.3754 2.80129C25.4178 3.87893 26.0638 5.22048 26.2718 6.73522C26.3438 7.25755 26.3383 8.21973 26.2579 8.7393C26.183 9.22589 26.1193 9.5008 25.989 9.90217C25.6341 10.9908 25.0463 11.9255 24.2007 12.742C23.4605 13.4595 22.6786 13.9433 21.772 14.2512C21.2037 14.4436 20.7601 14.5289 20.1196 14.5701C18.2454 14.6856 16.5043 14.0148 15.1375 12.6457C14.0036 11.5104 13.2994 10.0286 13.1385 8.42866C13.0914 7.95032 13.1191 6.95515 13.194 6.5153C13.4407 5.06928 14.0756 3.81845 15.0904 2.7848C16.18 1.67417 17.483 1.01164 18.9275 0.838447C19.299 0.794461 20.0392 0.788962 20.3997 0.824701Z" fill="#FEFEFE"/>
<path d="M0 7.90359V15.3673H4.63003H9.26007V14.9825V14.5976H5.03204H0.804018V11.3949V8.19224H4.36665H7.92928V7.80737V7.4225H4.36665H0.804018V4.31604V1.20958H5.03204H9.26007V0.824704V0.439833H4.63003H0V7.90359Z" fill="#FEFEFE"/>
<path d="M30.7471 5.44865C30.7471 10.4822 30.7526 10.8066 30.8469 11.2712C31.199 13.0169 32.6074 14.5811 34.3651 15.1831C36.3087 15.8457 38.413 15.4773 40.0459 14.1852C40.886 13.5227 41.5597 12.5963 41.8647 11.6918C42.0005 11.2822 42.0532 11.021 42.0865 10.6004C42.1031 10.4107 42.1142 8.17299 42.1142 5.35243V0.439826H41.7122H41.3102V5.44865C41.3102 8.91799 41.3019 10.5372 41.2797 10.7076C41.191 11.4361 40.8916 12.0987 40.3592 12.7557C39.594 13.7014 38.5155 14.3612 37.3206 14.6141C36.9131 14.7021 36.1867 14.7323 35.7431 14.6801C34.2127 14.5014 32.8874 13.6547 32.1194 12.3653C31.8367 11.8952 31.6509 11.3427 31.5816 10.7901C31.5594 10.6197 31.5511 8.98397 31.5511 5.48989V0.439826H31.1491H30.7471V5.44865Z" fill="#FEFEFE"/>
<path d="M46.5771 7.90359V15.3673H46.9792H47.3812V7.90359V0.439833H46.9792H46.5771V7.90359Z" fill="#FEFEFE"/>
<path d="M51.374 7.90359V15.3673H56.1011H60.8282V14.9825V14.5976H56.5031H52.178V7.51872V0.439833H51.776H51.374V7.90359Z" fill="#FEFEFE"/>
<path d="M65.209 7.90359V15.3673H65.611H66.013V7.90359V0.439833H65.611H65.209V7.90359Z" fill="#FEFEFE"/>
<path d="M62.3941 22.7623C58.9118 27.3863 58.7067 27.653 58.6623 27.609C58.6374 27.5815 57.0543 25.4372 55.1413 22.8448C53.231 20.2524 51.6285 18.0752 51.5759 18.0092L51.4844 17.8882V25.8935V33.8961H51.9002H52.3161L52.3217 27.1691L52.33 20.4421L55.5045 24.7499C57.2511 27.1169 58.69 29.0522 58.7039 29.0495C58.7178 29.044 60.1899 27.1004 61.9754 24.7252L65.222 20.4091L65.2358 27.1471L65.2497 33.8824L65.6739 33.8906L66.0953 33.8989V25.8825C66.0953 21.4758 66.0925 17.869 66.087 17.869C66.0842 17.869 64.4207 20.071 62.3941 22.7623Z" fill="#FEFEFE"/>
<path d="M0.0142399 17.9295C0.00592249 17.9487 0.00315002 21.5473 0.00592249 25.9238L0.0142399 33.8824H3.46597C7.31694 33.8824 7.14505 33.8906 7.8548 33.6872C8.50356 33.503 8.92497 33.3051 9.40461 32.9615C9.67632 32.7663 10.1171 32.3154 10.3029 32.0405C11.1402 30.7979 11.0792 28.6784 10.167 27.3258C9.98683 27.0592 9.5571 26.6358 9.27431 26.4516C9.04419 26.3004 8.57287 26.064 8.27067 25.9486C8.17363 25.9128 8.096 25.8771 8.096 25.8688C8.096 25.8606 8.16809 25.8138 8.25958 25.7644C8.75308 25.495 9.2854 25.0084 9.56264 24.5658C9.95079 23.9445 10.1532 23.194 10.156 22.35C10.1615 20.7995 9.59037 19.5404 8.55069 18.8064C8.14036 18.5178 7.44725 18.2126 6.84285 18.0587C6.25785 17.9102 6.39648 17.9157 3.09723 17.9047C0.602005 17.8965 0.0253298 17.902 0.0142399 17.9295ZM6.29667 18.7927C6.80126 18.8779 7.54983 19.1666 7.94906 19.4277C8.19859 19.5899 8.55624 19.9446 8.7309 20.2057C9.11073 20.7665 9.29926 21.4703 9.29926 22.3088C9.29649 22.974 9.18836 23.4716 8.93606 23.9472C8.64495 24.497 7.99897 25.0633 7.39457 25.2915C7.08405 25.4125 6.57669 25.5362 6.26894 25.5692C6.10259 25.5857 5.03796 25.5939 3.43825 25.5884L0.873707 25.5802L0.86539 22.1631L0.859845 18.7487H3.44656C5.69504 18.7487 6.06932 18.7542 6.29667 18.7927ZM7.30585 26.4984C8.69209 26.809 9.47947 27.4523 9.83989 28.5684C9.95911 28.9368 10.0118 29.2529 10.0284 29.6928C10.0617 30.49 9.87316 31.2158 9.49888 31.7326C9.35194 31.9415 9.02478 32.2494 8.80853 32.3924C8.47861 32.6096 7.86866 32.8487 7.35298 32.967C7.08682 33.0274 7.06742 33.0274 3.97333 33.0357L0.859845 33.0467V29.7313V26.4159L3.94561 26.4269L7.0286 26.4351L7.30585 26.4984Z" fill="#FEFEFE"/>
<path d="M14.6113 25.8963V33.8989L15.0355 33.8906L15.4569 33.8824L15.4653 30.1904L15.4708 26.5011L17.5529 26.5066L19.6351 26.5148L22.0748 30.1986L24.5118 33.8824L25.0247 33.8906L25.5377 33.8961L25.4434 33.7532C25.3907 33.6734 24.2928 32.013 23.0008 30.0611L20.6525 26.5148L20.7718 26.5093C21.5813 26.4626 22.2661 26.3361 22.9426 26.108C23.3086 25.9843 23.4943 25.899 23.7799 25.7286C24.4093 25.352 24.9028 24.8379 25.1994 24.2523C25.826 23.018 25.6735 21.0359 24.8612 19.8346C24.681 19.5679 24.3815 19.2325 24.1819 19.0703C23.425 18.4573 22.5933 18.1164 21.4455 17.9487C21.2874 17.924 20.2755 17.913 17.9189 17.9047L14.6113 17.8937V25.8963ZM21.598 18.8257C22.6404 19.0208 23.4832 19.4717 23.9989 20.104C24.473 20.6895 24.7309 21.517 24.7309 22.4599C24.7309 23.5458 24.351 24.3101 23.5304 24.8819C23.0729 25.198 22.5018 25.407 21.6396 25.5719C21.3429 25.6296 21.2486 25.6296 18.4041 25.6406L15.4708 25.6516V22.1988V18.7459L18.3763 18.7569C21.2181 18.7679 21.2847 18.7679 21.598 18.8257Z" fill="#FEFEFE"/>
<path d="M30.483 17.9295C30.4747 17.9487 30.4719 21.5472 30.4747 25.9238L30.483 33.8824L30.9072 33.8906L31.3286 33.8989V25.8963V17.8965H30.9127C30.605 17.8965 30.4913 17.9047 30.483 17.9295Z" fill="#FEFEFE"/>
<path d="M35.7373 23.3644C35.7373 29.3739 35.7318 29.121 35.9064 29.7918C36.1227 30.633 36.6245 31.4962 37.3038 32.2137C38.0274 32.9752 39.0477 33.5662 40.0873 33.8247C41.468 34.171 42.8432 34.0693 44.1573 33.5223C45.0639 33.1484 46.0204 32.4336 46.6387 31.6694C47.3512 30.7897 47.7421 29.8962 47.8503 28.9148C47.8724 28.7361 47.8808 26.8832 47.8808 23.2709V17.8965H47.451H47.0213V23.3149C47.0213 29.3629 47.0324 29.0303 46.8272 29.6378C46.367 31.0123 45.0917 32.2687 43.5862 32.8377C42.1168 33.3903 40.4145 33.2583 39.0615 32.4914C37.8416 31.8013 36.9877 30.6797 36.6744 29.3547L36.6134 29.099L36.5968 23.5046L36.5829 17.9102L36.1615 17.902L35.7373 17.8937V23.3644Z" fill="#FEFEFE"/>
</g>
<g clip-path="url(#clip1_1502_559)">
<path d="M74.8583 10.8435C73.8277 10.8435 72.8204 10.5381 71.9635 9.96606C71.1067 9.39398 70.439 8.58086 70.0447 7.62957C69.6505 6.67827 69.5475 5.63153 69.7488 4.62174C69.95 3.61196 70.4465 2.68449 71.1754 1.95666C71.9043 1.22882 72.8329 0.733316 73.8437 0.532816C74.8545 0.332315 75.9022 0.435827 76.8541 0.830258C77.806 1.22469 78.6194 1.89232 79.1915 2.74871C79.7636 3.60509 80.0687 4.61175 80.0681 5.64137C80.0665 7.02109 79.517 8.3438 78.5402 9.31913C77.5634 10.2945 76.2392 10.8427 74.8583 10.8435ZM74.8583 0.845219C73.907 0.845219 72.9772 1.12704 72.1862 1.65505C71.3953 2.18305 70.7789 2.93353 70.4148 3.81157C70.0508 4.68961 69.9556 5.65579 70.1412 6.58791C70.3267 7.52004 70.7848 8.37625 71.4574 9.04827C72.13 9.7203 72.987 10.1779 73.92 10.3634C74.8529 10.5488 75.82 10.4536 76.6988 10.0899C77.5776 9.72622 78.3288 9.11032 78.8572 8.3201C79.3857 7.52989 79.6678 6.60084 79.6678 5.65046C79.6686 4.37495 79.1624 3.15131 78.2606 2.24854C77.3587 1.34576 76.1349 0.837736 74.8583 0.83613V0.845219Z" fill="#1A79D1"/>
<path d="M72.2539 8.8136C71.7423 8.8136 71.2518 8.61058 70.8901 8.24921C70.5284 7.88784 70.3252 7.39771 70.3252 6.88666C70.3252 6.3756 70.5284 5.88548 70.8901 5.52411C71.2518 5.16273 71.7423 4.95972 72.2539 4.95972C72.7656 4.96052 73.2562 5.16421 73.6178 5.52606C73.9794 5.88791 74.1825 6.37835 74.1825 6.88969C74.1809 7.39997 73.9771 7.88886 73.6157 8.2494C73.2542 8.60994 72.7646 8.8128 72.2539 8.8136ZM72.2539 5.09303C71.7777 5.09303 71.3211 5.282 70.9844 5.61837C70.6478 5.95474 70.4586 6.41096 70.4586 6.88666C70.4586 7.36236 70.6478 7.81858 70.9844 8.15495C71.3211 8.49132 71.7777 8.68029 72.2539 8.68029C72.73 8.68029 73.1866 8.49132 73.5233 8.15495C73.86 7.81858 74.0491 7.36236 74.0491 6.88666C74.0491 6.41096 73.86 5.95474 73.5233 5.61837C73.1866 5.282 72.73 5.09303 72.2539 5.09303Z" fill="#1A79D1"/>
<path d="M72.2535 6.41398C71.8452 6.41418 71.446 6.29324 71.1065 6.0665C70.767 5.83975 70.5025 5.5174 70.3466 5.14031C70.1907 4.76322 70.1504 4.34838 70.2307 3.94836C70.3111 3.54834 70.5085 3.18116 70.7979 2.89337C70.9884 2.70123 71.2152 2.54874 71.465 2.44473C71.7149 2.34072 71.9829 2.28725 72.2535 2.28741C72.8002 2.28822 73.3242 2.50554 73.7108 2.89173C74.0973 3.27793 74.3148 3.8015 74.3156 4.34767C74.3148 4.89383 74.0973 5.4174 73.7108 5.8036C73.3242 6.1898 72.8002 6.40712 72.2535 6.40792V6.41398ZM72.2535 2.69038C71.8133 2.69197 71.3915 2.86741 71.0802 3.17844C70.7689 3.48946 70.5933 3.91084 70.5917 4.3507C70.5917 4.79132 70.7667 5.21394 71.0783 5.52579C71.3898 5.83765 71.8125 6.01325 72.2535 6.01405C72.6959 6.01405 73.1201 5.83848 73.4329 5.52598C73.7457 5.21347 73.9214 4.78962 73.9214 4.34767C73.9214 3.90572 73.7457 3.48187 73.4329 3.16936C73.1201 2.85685 72.6959 2.68129 72.2535 2.68129V2.69038Z" fill="#1A79D1"/>
<path d="M77.4303 8.94686C76.8834 8.94686 76.3589 8.7298 75.9721 8.34343C75.5854 7.95705 75.3682 7.43302 75.3682 6.88661C75.3682 6.34019 75.5854 5.81616 75.9721 5.42979C76.3589 5.04342 76.8834 4.82635 77.4303 4.82635C77.9772 4.82635 78.5017 5.04342 78.8884 5.42979C79.2751 5.81616 79.4923 6.34019 79.4923 6.88661C79.4923 7.43302 79.2751 7.95705 78.8884 8.34343C78.5017 8.7298 77.9772 8.94686 77.4303 8.94686ZM77.4303 5.22629C76.9879 5.22629 76.5637 5.40185 76.2509 5.71436C75.9381 6.02686 75.7624 6.45072 75.7624 6.89267C75.7624 7.33462 75.9381 7.75847 76.2509 8.07098C76.5637 8.38348 76.9879 8.55905 77.4303 8.55905C77.8726 8.55905 78.2968 8.38348 78.6096 8.07098C78.9224 7.75847 79.0981 7.33462 79.0981 6.89267C79.0981 6.45072 78.9224 6.02686 78.6096 5.71436C78.2968 5.40185 77.8726 5.22629 77.4303 5.22629Z" fill="#1A79D1"/>
<path d="M77.4294 6.28068C76.9307 6.26093 76.4591 6.04911 76.1132 5.68962C75.7674 5.33012 75.5742 4.85085 75.5742 4.35222C75.5742 3.8536 75.7674 3.37433 76.1132 3.01483C76.4591 2.65534 76.9307 2.44352 77.4294 2.42377C77.9404 2.42617 78.4297 2.63047 78.7905 2.99206C79.1513 3.35365 79.3542 3.84317 79.355 4.35374C79.3542 4.86455 79.1508 5.35421 78.7893 5.71541C78.4277 6.07661 77.9376 6.27988 77.4264 6.28068H77.4294ZM77.4294 2.55708C76.9538 2.55868 76.4981 2.74816 76.1617 3.08418C75.8254 3.42021 75.6358 3.8755 75.6342 4.35071C75.6342 4.82669 75.8232 5.28322 76.1598 5.62007C76.4964 5.95692 76.953 6.14657 77.4294 6.14737C77.8932 6.12833 78.3316 5.93088 78.653 5.5963C78.9744 5.26173 79.1538 4.81596 79.1538 4.35222C79.1538 3.88849 78.9744 3.44272 78.653 3.10815C78.3316 2.77357 77.8932 2.57612 77.4294 2.55708Z" fill="#1A79D1"/>
<path d="M76.2532 4.93543C75.777 4.9356 75.3154 4.77086 74.9471 4.46926C74.5789 4.16766 74.3266 3.74784 74.2333 3.28129C74.14 2.81473 74.2114 2.33029 74.4354 1.91045C74.6594 1.4906 75.0222 1.16131 75.4619 0.978649C75.9016 0.795983 76.3911 0.771233 76.847 0.908614C77.3029 1.046 77.6971 1.33701 77.9623 1.73212C78.2276 2.12722 78.3477 2.60198 78.302 3.07556C78.2563 3.54914 78.0477 3.99226 77.7118 4.32947C77.5205 4.5222 77.2928 4.67502 77.0418 4.77905C76.7909 4.88308 76.5218 4.93623 76.2501 4.93543H76.2532ZM76.2532 1.21789C75.8121 1.21789 75.3892 1.39271 75.077 1.704C74.7649 2.01528 74.5891 2.43758 74.5883 2.87821C74.5899 3.31806 74.7655 3.73944 75.0768 4.05047C75.3881 4.36149 75.8099 4.53693 76.2501 4.53853C76.6925 4.53853 77.1167 4.36296 77.4295 4.05046C77.7423 3.73795 77.918 3.3141 77.918 2.87215C77.918 2.4302 77.7423 2.00635 77.4295 1.69384C77.1167 1.38133 76.6925 1.20577 76.2501 1.20577L76.2532 1.21789Z" fill="#1A79D1"/>
<path d="M73.4479 4.80211C72.95 4.78237 72.4791 4.57088 72.1338 4.21195C71.7886 3.85302 71.5957 3.37451 71.5957 2.87668C71.5957 2.37885 71.7886 1.90034 72.1338 1.54141C72.4791 1.18248 72.95 0.970989 73.4479 0.951253C73.7074 0.940965 73.9663 0.98315 74.2091 1.07528C74.4519 1.1674 74.6736 1.30757 74.8608 1.48738C75.0481 1.66719 75.1971 1.88293 75.2988 2.12166C75.4006 2.36039 75.453 2.6172 75.453 2.87668C75.453 3.13616 75.4006 3.39297 75.2988 3.6317C75.1971 3.87043 75.0481 4.08617 74.8608 4.26598C74.6736 4.44579 74.4519 4.58596 74.2091 4.67808C73.9663 4.77021 73.7074 4.81239 73.4479 4.80211ZM73.4479 1.08456C72.9718 1.08456 72.5152 1.27353 72.1785 1.60991C71.8418 1.94628 71.6527 2.40249 71.6527 2.87819C71.6527 3.35389 71.8418 3.81011 72.1785 4.14648C72.5152 4.48286 72.9718 4.67183 73.4479 4.67183C73.924 4.67183 74.3807 4.48286 74.7173 4.14648C75.054 3.81011 75.2432 3.35389 75.2432 2.87819C75.2432 2.40302 75.0544 1.94726 74.7184 1.61098C74.3824 1.27469 73.9265 1.08537 73.4509 1.08456H73.4479Z" fill="#1A79D1"/>
<path d="M76.2528 10.3315C75.9997 10.3317 75.749 10.2818 75.5152 10.1845C75.2815 10.0873 75.0694 9.94465 74.8913 9.76491C74.7107 9.58759 74.5677 9.37576 74.4708 9.14204C74.3738 8.90832 74.325 8.65751 74.3272 8.40454C74.3272 8.15163 74.3771 7.9012 74.4741 7.66759C74.571 7.43397 74.7132 7.22174 74.8923 7.04305C75.0714 6.86436 75.2841 6.72271 75.518 6.6262C75.752 6.52969 76.0027 6.48023 76.2559 6.48062C76.7538 6.50036 77.2247 6.71185 77.57 7.07078C77.9153 7.42971 78.1081 7.90822 78.1081 8.40605C78.1081 8.90388 77.9153 9.38239 77.57 9.74132C77.2247 10.1003 76.7538 10.3117 76.2559 10.3315H76.2528ZM76.2528 6.6109C75.7772 6.6125 75.3215 6.80199 74.9852 7.13801C74.6489 7.47404 74.4592 7.92933 74.4576 8.40454C74.4592 8.87975 74.6489 9.33504 74.9852 9.67106C75.3215 10.0071 75.7772 10.1966 76.2528 10.1982C76.729 10.1982 77.1856 10.0092 77.5223 9.67283C77.8589 9.33645 78.0481 8.88024 78.0481 8.40454C78.0481 7.92884 77.8589 7.47262 77.5223 7.13625C77.1856 6.79988 76.729 6.6109 76.2528 6.6109Z" fill="#1A79D1"/>
<path d="M73.4478 10.4648C73.1706 10.4754 72.894 10.4301 72.6347 10.3314C72.3754 10.2327 72.1388 10.0828 71.9388 9.89056C71.7389 9.69834 71.5799 9.46779 71.4713 9.21272C71.3626 8.95764 71.3066 8.68328 71.3066 8.40608C71.3066 8.12887 71.3626 7.85452 71.4713 7.59944C71.5799 7.34436 71.7389 7.11381 71.9388 6.92159C72.1388 6.72937 72.3754 6.57944 72.6347 6.48077C72.894 6.38209 73.1706 6.33671 73.4478 6.34734C73.7251 6.33671 74.0016 6.38209 74.2609 6.48077C74.5202 6.57944 74.7569 6.72937 74.9568 6.92159C75.1567 7.11381 75.3157 7.34436 75.4243 7.59944C75.533 7.85452 75.589 8.12887 75.589 8.40608C75.589 8.68328 75.533 8.95764 75.4243 9.21272C75.3157 9.46779 75.1567 9.69834 74.9568 9.89056C74.7569 10.0828 74.5202 10.2327 74.2609 10.3314C74.0016 10.4301 73.7251 10.4754 73.4478 10.4648ZM73.4478 6.74424C73.0055 6.74424 72.5812 6.91981 72.2684 7.23231C71.9556 7.54482 71.7799 7.96867 71.7799 8.41062C71.7799 8.85257 71.9556 9.27643 72.2684 9.58893C72.5812 9.90144 73.0055 10.077 73.4478 10.077C73.8901 10.077 74.3144 9.90144 74.6272 9.58893C74.94 9.27643 75.1157 8.85257 75.1157 8.41062C75.1157 7.96867 74.94 7.54482 74.6272 7.23231C74.3144 6.91981 73.8901 6.74424 73.4478 6.74424Z" fill="#1A79D1"/>
<path d="M78.416 33.8881L72.0781 27.5558L78.416 21.2266L84.7691 27.5558L78.416 33.8881ZM72.6543 27.5558L78.416 33.3124L84.1778 27.5558L78.416 21.7992L72.6543 27.5558Z" fill="#EB5B26"/>
<path d="M76.6238 32.0339L74.2676 29.6767L76.6238 27.3225L78.9831 29.6767L76.6238 32.0339ZM74.8316 29.6767L76.6238 31.4673L78.416 29.6767L76.6238 27.8861L74.8316 29.6767Z" fill="#EB5B26"/>
<path d="M78.4402 32.0339L76.084 29.6767L78.4402 27.3225L80.7995 29.6767L78.4402 32.0339ZM76.648 29.6767L78.4402 31.4673L80.2355 29.6767L78.4402 27.8861L76.648 29.6767Z" fill="#EB5B26"/>
<path d="M80.2205 32.0339L77.8643 29.6767L80.2205 27.3225L82.5798 29.6767L80.2205 32.0339ZM78.401 29.6767L80.1932 31.4673L81.9854 29.6767L80.2205 27.8861L78.401 29.6767Z" fill="#EB5B26"/>
<path d="M76.6238 27.7346L74.2676 25.3804L76.6238 23.0233L78.9831 25.3804L76.6238 27.7346ZM74.8316 25.3804L76.6238 27.171L78.416 25.3804L76.6238 23.5868L74.8316 25.3804Z" fill="#EB5B26"/>
<path d="M78.4402 27.7346L76.084 25.3804L78.4402 23.0233L80.7995 25.3804L78.4402 27.7346ZM76.648 25.3804L78.4402 27.171L80.2355 25.3804L78.4402 23.5868L76.648 25.3804Z" fill="#EB5B26"/>
<path d="M80.2205 27.7346L77.8643 25.3804L80.2205 23.0233L82.5798 25.3804L80.2205 27.7346ZM78.401 25.3804L80.1932 27.171L81.9854 25.3804L80.2205 23.5868L78.401 25.3804Z" fill="#EB5B26"/>
<path d="M86.7883 22.89L68.7207 19.3027L70.5402 10.0982L88.6199 13.6855L86.7883 22.89ZM69.1998 18.9876L86.485 22.4204L88.159 14.0006L70.8738 10.5679L69.1998 18.9876Z" fill="#FFDD08"/>
<path d="M72.7625 19.0209L70.8369 16.0244L72.435 14.9337L74.3607 17.9302L72.7625 19.0209ZM71.3828 16.1456L72.8748 18.4725L73.8148 17.8272L72.335 15.4882L71.3828 16.1456Z" fill="#FFDD08"/>
<path d="M74.0364 18.1332L72.9902 16.5032L75.9287 14.4823L76.9749 16.1124L74.0364 18.1332ZM73.5361 16.6183L74.1426 17.5757L76.42 16.0093L75.8135 15.0519L73.5361 16.6183Z" fill="#FFDD08"/>
<path d="M71.0462 16.385L70 14.755L72.9415 12.7372L73.9908 14.3672L71.0462 16.385ZM70.5428 14.8701L71.1493 15.8275L73.4267 14.2611L72.8202 13.3037L70.5428 14.8701Z" fill="#FFDD08"/>
<path d="M74.5522 15.9366L72.6387 12.9402L74.2368 11.8404L76.1624 14.8398L74.5522 15.9366ZM73.1694 13.0492L74.6644 15.3761L75.6045 14.7308L74.1094 12.4039L73.1694 13.0492Z" fill="#FFDD08"/>
<path d="M77.9725 20.0238L76.0469 17.0273L77.642 15.9275L79.5706 18.927L77.9725 20.0238ZM76.5806 17.1364L78.0968 19.4784L79.0369 18.8331L77.5419 16.5062L76.5806 17.1364Z" fill="#FFDD08"/>
<path d="M79.2464 19.1361L78.2002 17.503L81.1296 15.4852L82.1788 17.1152L79.2464 19.1361ZM78.743 17.6212L79.3495 18.5786L81.6269 17.0122L81.0204 16.0548L78.743 17.6212Z" fill="#FFDD08"/>
<path d="M76.2562 17.3878L75.21 15.7578L78.1454 13.74L79.1947 15.37L76.2562 17.3878ZM75.7528 15.873L76.3593 16.8334L78.6397 15.267L78.0332 14.3066L75.7528 15.873Z" fill="#FFDD08"/>
<path d="M79.7616 16.9394L77.8359 13.94L79.431 12.8432L81.3597 15.8427L79.7616 16.9394ZM78.3787 14.0521L79.8738 16.3759L80.8138 15.7306L79.3097 13.4188L78.3787 14.0521Z" fill="#FFDD08"/>
<path d="M83.1375 21.0509L81.2119 18.0514L82.81 16.9547L84.7357 19.9511L83.1375 21.0509ZM81.7578 18.1605L83.2528 20.4874L84.1898 19.842L82.6948 17.5152L81.7578 18.1605Z" fill="#FFDD08"/>
<path d="M84.4105 20.1601L83.3643 18.5301L86.3027 16.5123L87.349 18.1423L84.4105 20.1601ZM83.9101 18.6452L84.5166 19.6026L86.794 18.0393L86.1875 17.0788L83.9101 18.6452Z" fill="#FFDD08"/>
<path d="M81.4329 18.4149L80.3867 16.7849L83.3222 14.764L84.3714 16.3941L81.4329 18.4149ZM80.9295 16.9L81.536 17.8574L83.8134 16.291L83.2069 15.3336L80.9295 16.9Z" fill="#FFDD08"/>
<path d="M84.9266 17.9635L83.001 14.9671L84.5991 13.8703L86.5247 16.8668L84.9266 17.9635ZM83.5559 15.0762L85.0509 17.403L85.9819 16.7516L84.4869 14.4248L83.5559 15.0762Z" fill="#FFDD08"/>
</g>
<defs>
<clipPath id="clip0_1502_559">
<rect width="90" height="34.0336" fill="white"/>
</clipPath>
<clipPath id="clip1_1502_559">
<rect width="19.8992" height="33.4518" fill="white" transform="translate(68.7207 0.436218)"/>
</clipPath>
</defs>
</svg>
