<svg width="31" height="26" viewBox="0 0 31 26" fill="none" xmlns="http://www.w3.org/2000/svg">
<g clip-path="url(#clip0_1296_10483)">
<path d="M28.0685 25.2495C29.4159 25.2495 30.5082 24.1573 30.5082 22.8099C30.5082 21.4625 29.4159 20.3702 28.0685 20.3702C26.7212 20.3702 25.6289 21.4625 25.6289 22.8099C25.6289 24.1573 26.7212 25.2495 28.0685 25.2495Z" fill="#1C8CCD"/>
<path d="M24.1325 17.9334C24.1325 18.9825 24.0239 19.9595 23.7709 20.8642C23.5446 21.7234 23.1389 22.525 22.5806 23.2162C22.0374 23.8672 21.3142 24.3739 20.4816 24.7363C19.6498 25.1344 18.6364 25.3152 17.4786 25.3152L0 25.3509V0.0209426L5.28277 0.00231934V9.97196H16.175C16.175 9.97196 24.1325 9.76711 24.1325 17.9334ZM5.27656 20.3211L16.1688 20.2854C16.5189 20.2921 16.8691 20.2799 17.2179 20.2489C17.5438 20.2124 17.8332 20.1403 18.087 19.9595C18.3407 19.7787 18.5207 19.5249 18.6658 19.1633C18.811 18.8017 18.8823 18.295 18.8823 17.6075C18.8823 16.92 18.8102 16.4133 18.6658 16.0556C18.5215 15.6978 18.3399 15.4402 18.087 15.2594C17.834 15.0786 17.5438 15.0057 17.2179 14.97C16.8691 14.939 16.5189 14.9268 16.1688 14.9335L5.27656 14.97V20.3211Z" fill="white"/>
</g>
<defs>
<clipPath id="clip0_1296_10483">
<rect width="30.5009" height="25.3486" fill="white"/>
</clipPath>
</defs>
</svg>
