<svg width="25" height="42" viewBox="0 0 25 42" fill="none" xmlns="http://www.w3.org/2000/svg">
<g clip-path="url(#clip0_879_9859)">
<path d="M7.7052 13.0667C6.41133 13.0667 5.14652 12.6833 4.07076 11.965C2.99499 11.2467 2.15659 10.2258 1.66162 9.03144C1.16664 7.83705 1.03733 6.52283 1.29003 5.255C1.54273 3.98718 2.16609 2.82271 3.08126 1.90889C3.99643 0.995067 5.16232 0.372942 6.43143 0.121207C7.70053 -0.130528 9.01585 -0.000565926 10.211 0.494657C11.4062 0.98988 12.4275 1.82812 13.1458 2.90334C13.8641 3.97856 14.2471 5.24246 14.2463 6.53518C14.2443 8.26747 13.5544 9.92819 12.328 11.1527C11.1016 12.3773 9.43905 13.0656 7.7052 13.0667ZM7.7052 0.513441C6.51089 0.513441 5.3434 0.867279 4.35037 1.53021C3.35733 2.19314 2.58336 3.13539 2.12632 4.2378C1.66927 5.34022 1.54969 6.55328 1.78269 7.7236C2.01569 8.89392 2.59079 9.96892 3.4353 10.8127C4.27981 11.6564 5.35578 12.231 6.52715 12.4638C7.69851 12.6966 8.91265 12.5771 10.016 12.1205C11.1195 11.6639 12.0625 10.8906 12.7261 9.89843C13.3896 8.90628 13.7438 7.73984 13.7438 6.54659C13.7448 4.94514 13.1093 3.40882 11.9769 2.27536C10.8446 1.14189 9.30809 0.504045 7.7052 0.502029V0.513441Z" fill="#1A79D1"/>
<path d="M4.43518 10.5181C3.79295 10.5181 3.17704 10.2632 2.72291 9.80952C2.26879 9.35581 2.01367 8.74044 2.01367 8.09879C2.01367 7.45714 2.26879 6.84177 2.72291 6.38805C3.17704 5.93434 3.79295 5.67944 4.43518 5.67944C5.07775 5.68045 5.69366 5.93619 6.14768 6.39051C6.60169 6.84483 6.85671 7.46059 6.85671 8.10259C6.8547 8.74327 6.5988 9.35708 6.145 9.80976C5.69121 10.2624 5.07644 10.5171 4.43518 10.5181ZM4.43518 5.84682C3.83738 5.84682 3.26409 6.08408 2.84138 6.50641C2.41868 6.92873 2.1812 7.50153 2.1812 8.09879C2.1812 8.69605 2.41868 9.26885 2.84138 9.69117C3.26409 10.1135 3.83738 10.3508 4.43518 10.3508C5.03297 10.3508 5.60629 10.1135 6.029 9.69117C6.4517 9.26885 6.68918 8.69605 6.68918 8.09879C6.68918 7.50153 6.4517 6.92873 6.029 6.50641C5.60629 6.08408 5.03297 5.84682 4.43518 5.84682Z" fill="#1A79D1"/>
<path d="M4.43406 7.50527C3.92135 7.50553 3.42011 7.35368 2.99388 7.06899C2.56764 6.7843 2.23561 6.37958 2.03986 5.90613C1.84411 5.43269 1.79349 4.91183 1.89436 4.4096C1.99524 3.90736 2.24309 3.44635 2.60651 3.08502C2.84566 2.84378 3.13033 2.65233 3.44403 2.52173C3.75773 2.39114 4.09422 2.32401 4.43406 2.32422C5.12041 2.32523 5.77836 2.59808 6.26368 3.08296C6.749 3.56785 7.02211 4.22521 7.02312 4.91094C7.02211 5.59667 6.749 6.25403 6.26368 6.73892C5.77836 7.22381 5.12041 7.49666 4.43406 7.49766V7.50527ZM4.43406 2.83015C3.88132 2.83216 3.3518 3.05243 2.96095 3.44293C2.57009 3.83343 2.34962 4.36249 2.34761 4.91475C2.34761 5.46796 2.5673 5.99858 2.95848 6.39012C3.34966 6.78166 3.88035 7.00214 4.43406 7.00314C4.98945 7.00314 5.52209 6.78272 5.9148 6.39035C6.30752 5.99799 6.52814 5.46583 6.52814 4.91094C6.52814 4.35606 6.30752 3.8239 5.9148 3.43153C5.52209 3.03917 4.98945 2.81874 4.43406 2.81874V2.83015Z" fill="#1A79D1"/>
<path d="M10.9347 10.6854C10.2481 10.6854 9.58956 10.4129 9.10402 9.92777C8.61849 9.44267 8.3457 8.78473 8.3457 8.09868C8.3457 7.41264 8.61849 6.7547 9.10402 6.2696C9.58956 5.78449 10.2481 5.51196 10.9347 5.51196C11.6214 5.51196 12.2799 5.78449 12.7655 6.2696C13.251 6.7547 13.5238 7.41264 13.5238 8.09868C13.5238 8.78473 13.251 9.44267 12.7655 9.92777C12.2799 10.4129 11.6214 10.6854 10.9347 10.6854ZM10.9347 6.01409C10.3794 6.01409 9.84671 6.23452 9.454 6.62688C9.06128 7.01925 8.84066 7.55141 8.84066 8.10629C8.84066 8.66118 9.06128 9.19334 9.454 9.5857C9.84671 9.97807 10.3794 10.1985 10.9347 10.1985C11.4901 10.1985 12.0228 9.97807 12.4155 9.5857C12.8082 9.19334 13.0288 8.66118 13.0288 8.10629C13.0288 7.55141 12.8082 7.01925 12.4155 6.62688C12.0228 6.23452 11.4901 6.01409 10.9347 6.01409Z" fill="#1A79D1"/>
<path d="M10.9347 7.33786C10.3086 7.31306 9.71641 7.04712 9.2822 6.59576C8.84799 6.1444 8.60547 5.54265 8.60547 4.91661C8.60547 4.29057 8.84799 3.68882 9.2822 3.23746C9.71641 2.7861 10.3086 2.52016 10.9347 2.49536C11.5763 2.49837 12.1907 2.75488 12.6437 3.20887C13.0966 3.66287 13.3514 4.27748 13.3524 4.91851C13.3514 5.55985 13.096 6.17464 12.6421 6.62814C12.1882 7.08163 11.5728 7.33685 10.9309 7.33786H10.9347ZM10.9347 2.66274C10.3375 2.66474 9.7654 2.90265 9.34313 3.32454C8.92086 3.74643 8.68275 4.31807 8.68074 4.91471C8.68074 5.51232 8.9181 6.08551 9.34069 6.50844C9.76329 6.93137 10.3366 7.16947 10.9347 7.17048C11.517 7.14658 12.0675 6.89866 12.471 6.4786C12.8745 6.05853 13.0998 5.49884 13.0998 4.91661C13.0998 4.33438 12.8745 3.77469 12.471 3.35462C12.0675 2.93456 11.517 2.68664 10.9347 2.66274Z" fill="#1A79D1"/>
<path d="M9.45726 5.64875C8.85937 5.64897 8.2799 5.44213 7.8175 5.06346C7.35509 4.68478 7.03836 4.15768 6.92121 3.57191C6.80406 2.98614 6.89374 2.3779 7.175 1.85077C7.45626 1.32364 7.9117 0.910208 8.46376 0.680864C9.01583 0.45152 9.6304 0.420446 10.2028 0.592933C10.7752 0.76542 11.2701 1.1308 11.6032 1.62687C11.9363 2.12294 12.087 2.71902 12.0296 3.31361C11.9723 3.90821 11.7104 4.46457 11.2886 4.88795C11.0484 5.12993 10.7625 5.3218 10.4475 5.45241C10.1324 5.58301 9.79454 5.64975 9.45345 5.64875H9.45726ZM9.45726 0.981235C8.90355 0.981234 8.37246 1.20074 7.98056 1.59157C7.58867 1.9824 7.368 2.51261 7.367 3.06583C7.369 3.61808 7.58948 4.14714 7.98033 4.53765C8.37118 4.92815 8.9007 5.14842 9.45345 5.15042C10.0088 5.15042 10.5415 4.92999 10.9342 4.53763C11.3269 4.14527 11.5475 3.61311 11.5475 3.05822C11.5475 2.50333 11.3269 1.97117 10.9342 1.57881C10.5415 1.18645 10.0088 0.966019 9.45345 0.966019L9.45726 0.981235Z" fill="#1A79D1"/>
<path d="M5.93488 5.48157C5.30977 5.45679 4.71852 5.19125 4.28501 4.7406C3.8515 4.28995 3.60938 3.68917 3.60938 3.06412C3.60938 2.43908 3.8515 1.83829 4.28501 1.38764C4.71852 0.936991 5.30977 0.671457 5.93488 0.646678C6.26071 0.633762 6.58578 0.686726 6.89062 0.802393C7.19545 0.918061 7.47377 1.09405 7.70887 1.3198C7.94397 1.54556 8.13102 1.81643 8.25879 2.11616C8.38655 2.4159 8.45241 2.73833 8.45241 3.06412C8.45241 3.38991 8.38655 3.71234 8.25879 4.01208C8.13102 4.31182 7.94397 4.58268 7.70887 4.80844C7.47377 5.03419 7.19545 5.21018 6.89062 5.32585C6.58578 5.44152 6.26071 5.49448 5.93488 5.48157ZM5.93488 0.814054C5.33709 0.814054 4.76379 1.05131 4.34109 1.47364C3.91838 1.89597 3.6809 2.46876 3.6809 3.06602C3.6809 3.66328 3.91838 4.23608 4.34109 4.65841C4.76379 5.08073 5.33709 5.31799 5.93488 5.31799C6.53268 5.31799 7.106 5.08073 7.5287 4.65841C7.95141 4.23608 8.18889 3.66328 8.18889 3.06602C8.18889 2.46942 7.95193 1.8972 7.53005 1.47498C7.10817 1.05277 6.53583 0.815062 5.93869 0.814054H5.93488Z" fill="#1A79D1"/>
<path d="M9.45685 12.4238C9.13896 12.4241 8.82419 12.3614 8.53074 12.2393C8.23729 12.1172 7.971 11.9381 7.74732 11.7124C7.52058 11.4898 7.34103 11.2238 7.21937 10.9304C7.0977 10.6369 7.03641 10.322 7.03915 10.0044C7.03915 9.68688 7.10181 9.37246 7.22355 9.07914C7.34529 8.78583 7.52372 8.51937 7.74862 8.29502C7.97353 8.07067 8.24051 7.89282 8.53427 7.77165C8.82804 7.65048 9.14284 7.58837 9.46066 7.58887C10.0858 7.61365 10.677 7.87918 11.1106 8.32983C11.5441 8.78048 11.7862 9.38127 11.7862 10.0063C11.7862 10.6314 11.5441 11.2321 11.1106 11.6828C10.677 12.1334 10.0858 12.399 9.46066 12.4238H9.45685ZM9.45685 7.75244C8.85967 7.75445 8.28753 7.99235 7.86526 8.41425C7.44299 8.83614 7.20487 9.40777 7.20287 10.0044C7.20487 10.6011 7.44299 11.1727 7.86526 11.5946C8.28753 12.0165 8.85967 12.2544 9.45685 12.2564C10.0546 12.2564 10.628 12.0191 11.0507 11.5968C11.4734 11.1745 11.7108 10.6017 11.7108 10.0044C11.7108 9.40715 11.4734 8.83436 11.0507 8.41203C10.628 7.9897 10.0546 7.75244 9.45685 7.75244Z" fill="#1A79D1"/>
<path d="M5.9344 12.5912C5.58631 12.6046 5.23909 12.5476 4.91356 12.4237C4.58802 12.2998 4.29086 12.1116 4.03985 11.8702C3.78885 11.6289 3.58919 11.3394 3.4528 11.0192C3.31641 10.6989 3.24609 10.3544 3.24609 10.0064C3.24609 9.65836 3.31641 9.31389 3.4528 8.99364C3.58919 8.67338 3.78885 8.38392 4.03985 8.14258C4.29086 7.90124 4.58802 7.71299 4.91356 7.5891C5.23909 7.46521 5.58631 7.40824 5.9344 7.42158C6.2825 7.40824 6.62971 7.46521 6.95525 7.5891C7.28079 7.71299 7.57797 7.90124 7.82898 8.14258C8.07998 8.38392 8.27964 8.67338 8.41603 8.99364C8.55242 9.31389 8.62271 9.65836 8.62271 10.0064C8.62271 10.3544 8.55242 10.6989 8.41603 11.0192C8.27964 11.3394 8.07998 11.6289 7.82898 11.8702C7.57797 12.1116 7.28079 12.2998 6.95525 12.4237C6.62971 12.5476 6.2825 12.6046 5.9344 12.5912ZM5.9344 7.9199C5.37902 7.9199 4.84638 8.14033 4.45366 8.5327C4.06095 8.92506 3.84033 9.45722 3.84033 10.0121C3.84033 10.567 4.06095 11.0992 4.45366 11.4915C4.84638 11.8839 5.37902 12.1043 5.9344 12.1043C6.48979 12.1043 7.02243 11.8839 7.41514 11.4915C7.80786 11.0992 8.02848 10.567 8.02848 10.0121C8.02848 9.45722 7.80786 8.92506 7.41514 8.5327C7.02243 8.14033 6.48979 7.9199 5.9344 7.9199Z" fill="#1A79D1"/>
<path d="M12.1704 42L4.21289 34.0496L12.1704 26.103L20.1469 34.0496L12.1704 42ZM4.93628 34.0496L12.1704 41.2772L19.4044 34.0496L12.1704 26.822L4.93628 34.0496Z" fill="#EB5B26"/>
<path d="M9.92126 39.6721L6.96289 36.7125L9.92126 33.7568L12.8834 36.7125L9.92126 39.6721ZM7.67106 36.7125L9.92126 38.9607L12.1714 36.7125L9.92126 34.4644L7.67106 36.7125Z" fill="#EB5B26"/>
<path d="M12.2006 39.6721L9.24219 36.7125L12.2006 33.7568L15.1627 36.7125L12.2006 39.6721ZM9.95036 36.7125L12.2006 38.9607L14.4545 36.7125L12.2006 34.4644L9.95036 36.7125Z" fill="#EB5B26"/>
<path d="M14.4349 39.6721L11.4766 36.7125L14.4349 33.7568L17.3971 36.7125L14.4349 39.6721ZM12.1505 36.7125L14.4007 38.9607L16.6508 36.7125L14.4349 34.4644L12.1505 36.7125Z" fill="#EB5B26"/>
<path d="M9.92126 34.2741L6.96289 31.3184L9.92126 28.3589L12.8834 31.3184L9.92126 34.2741ZM7.67106 31.3184L9.92126 33.5666L12.1714 31.3184L9.92126 29.0664L7.67106 31.3184Z" fill="#EB5B26"/>
<path d="M12.2006 34.2741L9.24219 31.3184L12.2006 28.3589L15.1627 31.3184L12.2006 34.2741ZM9.95036 31.3184L12.2006 33.5666L14.4545 31.3184L12.2006 29.0664L9.95036 31.3184Z" fill="#EB5B26"/>
<path d="M14.4349 34.2741L11.4766 31.3184L14.4349 28.3589L17.3971 31.3184L14.4349 34.2741ZM12.1505 31.3184L14.4007 33.5666L16.6508 31.3184L14.4349 29.0664L12.1505 31.3184Z" fill="#EB5B26"/>
<path d="M22.6826 28.1914L-0.00195312 23.6874L2.28249 12.1309L24.9823 16.6348L22.6826 28.1914ZM0.599601 23.2918L22.3018 27.6017L24.4035 17.0304L2.7013 12.7205L0.599601 23.2918Z" fill="#FFDD08"/>
<path d="M5.07395 23.3335L2.65625 19.5713L4.66276 18.2019L7.08046 21.9641L5.07395 23.3335ZM3.34158 19.7235L5.21484 22.645L6.39513 21.8347L4.53711 18.898L3.34158 19.7235Z" fill="#FFDD08"/>
<path d="M6.67294 22.2191L5.35938 20.1725L9.04876 17.6353L10.3623 19.6818L6.67294 22.2191ZM6.04473 20.3171L6.80621 21.5191L9.66555 19.5525L8.90407 18.3504L6.04473 20.3171Z" fill="#FFDD08"/>
<path d="M2.91903 20.0241L1.60547 17.9776L5.29866 15.4441L6.61603 17.4906L2.91903 20.0241ZM2.28701 18.1221L3.04849 19.3242L5.90784 17.3575L5.14635 16.1554L2.28701 18.1221Z" fill="#FFDD08"/>
<path d="M7.32044 19.4611L4.91797 15.699L6.92448 14.3181L9.34218 18.0841L7.32044 19.4611ZM5.58427 15.8359L7.46132 18.7574L8.64163 17.9471L6.76455 15.0257L5.58427 15.8359Z" fill="#FFDD08"/>
<path d="M11.615 24.5927L9.19727 20.8306L11.2 19.4497L13.6215 23.2157L11.615 24.5927ZM9.86737 20.9675L11.7711 23.908L12.9514 23.0977L11.0743 20.1763L9.86737 20.9675Z" fill="#FFDD08"/>
<path d="M13.2139 23.4781L11.9004 21.4278L15.5783 18.8943L16.8957 20.9408L13.2139 23.4781ZM12.5819 21.5761L13.3434 22.7782L16.2028 20.8115L15.4413 19.6094L12.5819 21.5761Z" fill="#FFDD08"/>
<path d="M9.46005 21.2831L8.14648 19.2366L11.8321 16.7031L13.1494 18.7497L9.46005 21.2831ZM8.82803 19.3811L9.58951 20.587L12.4527 18.6203L11.6912 17.4145L8.82803 19.3811Z" fill="#FFDD08"/>
<path d="M13.8611 20.7202L11.4434 16.9542L13.4461 15.5771L15.8676 19.3431L13.8611 20.7202ZM12.1249 17.0949L14.0019 20.0126L15.1822 19.2024L13.2938 16.2999L12.1249 17.0949Z" fill="#FFDD08"/>
<path d="M18.0974 25.8823L15.6797 22.1163L17.6862 20.7393L20.1039 24.5014L18.0974 25.8823ZM16.365 22.2533L18.2421 25.1747L19.4186 24.3645L17.5415 21.443L16.365 22.2533Z" fill="#FFDD08"/>
<path d="M19.6983 24.7639L18.3848 22.7173L22.0741 20.1838L23.3877 22.2304L19.6983 24.7639ZM19.0701 22.8619L19.8316 24.0639L22.6909 22.1011L21.9295 20.8952L19.0701 22.8619Z" fill="#FFDD08"/>
<path d="M15.9581 22.5728L14.6445 20.5263L18.3301 17.989L19.6475 20.0356L15.9581 22.5728ZM15.3261 20.6708L16.0876 21.8729L18.9469 19.9062L18.1854 18.7042L15.3261 20.6708Z" fill="#FFDD08"/>
<path d="M20.3455 22.0062L17.9277 18.244L19.9342 16.8669L22.3519 20.6291L20.3455 22.0062ZM18.6245 18.3809L20.5015 21.3024L21.6704 20.4846L19.7934 17.5631L18.6245 18.3809Z" fill="#FFDD08"/>
</g>
<defs>
<clipPath id="clip0_879_9859">
<rect width="24.9842" height="42" fill="white"/>
</clipPath>
</defs>
</svg>
