<svg width="80" height="72" viewBox="0 0 80 72" fill="none" xmlns="http://www.w3.org/2000/svg">
<path d="M3.25568 17.9006C3.00771 17.7958 2.74153 17.7409 2.47233 17.7389C2.20313 17.7369 1.93618 17.788 1.68672 17.8892C1.43726 17.9904 1.21017 18.1398 1.01843 18.3288C0.826694 18.5177 0.674053 18.7426 0.569224 18.9906C0.464396 19.2385 0.409434 19.5047 0.407476 19.7739C0.405519 20.0431 0.456603 20.3101 0.557814 20.5595C0.659024 20.809 0.808379 21.0361 0.997349 21.2278C1.18632 21.4196 1.41121 21.5722 1.65917 21.677L11.1101 25.6743C11.3581 25.7791 11.6242 25.8341 11.8934 25.836C12.1626 25.838 12.4296 25.7869 12.6791 25.6857C12.9285 25.5845 13.1556 25.4351 13.3473 25.2462C13.5391 25.0572 13.6917 24.8323 13.7965 24.5843C13.9014 24.3364 13.9563 24.0702 13.9583 23.801C13.9602 23.5318 13.9092 23.2648 13.808 23.0154C13.7067 22.7659 13.5574 22.5388 13.3684 22.3471C13.1794 22.1554 12.9546 22.0027 12.7066 21.8979L3.25568 17.9006ZM4.93464 38.1928C4.40699 38.3239 3.95303 38.6592 3.67263 39.125C3.39222 39.5908 3.30835 40.1489 3.43945 40.6766C3.57055 41.2042 3.90589 41.6582 4.37169 41.9386C4.8375 42.219 5.39562 42.3029 5.92327 42.1718L11.8918 40.6888C12.4195 40.5577 12.8734 40.2224 13.1538 39.7566C13.4342 39.2908 13.5181 38.7327 13.387 38.205C13.2559 37.6774 12.9206 37.2234 12.4548 36.943C11.9889 36.6626 11.4308 36.5787 10.9032 36.7098L4.93464 38.1928ZM35.7947 9.40195C48.3247 6.28876 60.9577 13.0103 64.8993 24.7936L65.1745 25.6631L65.4128 26.5545L68.964 40.864L74.8413 48.7909C74.9843 48.9836 75.1101 49.1884 75.2173 49.403L75.366 49.7294L75.5273 50.2427C75.7411 51.1219 75.6581 52.047 75.2912 52.874C74.9244 53.701 74.2943 54.3835 73.4991 54.815L73.0642 55.0371L72.5369 55.2104L58.6064 58.6716L58.7447 59.3132C59.212 61.8772 58.685 64.523 57.2709 66.7124C55.8568 68.9017 53.6617 70.4701 51.1323 71.0985C48.6029 71.727 45.9291 71.3683 43.6548 70.0954C41.3805 68.8225 39.6764 66.7311 38.8894 64.2464L38.7113 63.6147L24.7807 67.0759C24.4316 67.1636 24.0724 67.2045 23.7126 67.1977L23.1767 67.1492C22.2893 67.0102 21.4722 66.5836 20.8508 65.9351C20.2294 65.2865 19.8382 64.4519 19.7373 63.5594L19.6953 63.0333L19.7398 62.4815L21.2177 52.7355L17.6557 38.3822L17.4502 37.487C14.856 24.9548 22.9544 12.5923 35.7947 9.40195ZM54.6274 59.6602L42.6903 62.6261L42.8575 63.1802C43.3338 64.5248 44.2625 65.662 45.4848 66.3971C46.7072 67.1323 48.147 67.4198 49.5579 67.2103L50.1378 67.0958C51.6215 66.7271 52.9147 65.819 53.7652 64.5485C54.6156 63.2781 54.9624 61.7364 54.7379 60.2242L54.6274 59.6602ZM36.7834 13.381C26.3464 15.9742 19.7046 25.7484 21.303 35.7524L21.4569 36.6098L21.6436 37.4294L25.2996 52.1438L25.3382 52.9454L23.7921 63.0969L71.3752 51.2828L71.5523 51.2304L65.4308 42.9839L65.0898 42.2575L61.4437 27.5829L61.2261 26.7751C58.2636 16.6369 47.5148 10.7146 36.7834 13.381ZM71.4276 1.38506C71.0062 1.0416 70.4655 0.879632 69.9246 0.934794C69.3837 0.989956 68.8869 1.25773 68.5435 1.6792L62.0624 9.63492C61.7189 10.0564 61.5569 10.597 61.6121 11.1379C61.6673 11.6788 61.935 12.1756 62.3565 12.5191C62.778 12.8626 63.3186 13.0245 63.8595 12.9694C64.4004 12.9142 64.8972 12.6464 65.2407 12.225L71.7218 4.26923C72.0652 3.84776 72.2272 3.30712 72.172 2.76623C72.1169 2.22534 71.8491 1.72852 71.4276 1.38506V1.38506ZM79.0408 21.8926C78.9097 21.365 78.5744 20.911 78.1086 20.6306C77.6428 20.3502 77.0847 20.2663 76.557 20.3974L70.5885 21.8804C70.0608 22.0115 69.6069 22.3468 69.3265 22.8126C69.0461 23.2784 68.9622 23.8365 69.0933 24.3642C69.2244 24.8918 69.5597 25.3458 70.0255 25.6262C70.4913 25.9066 71.0495 25.9905 71.5771 25.8594L77.5457 24.3764C78.0733 24.2453 78.5273 23.91 78.8077 23.4442C79.0881 22.9784 79.1719 22.4203 79.0408 21.8926Z" fill="#0067B1"/>
</svg>
