<svg width="24" height="25" viewBox="0 0 24 25" fill="none" xmlns="http://www.w3.org/2000/svg">
<circle cx="12" cy="12.5" r="12" fill="CurrentColor"/>
<path d="M11.544 6.48C13.656 6.48 15.176 7.632 15.176 9.504C15.176 10.768 14.424 11.744 13.24 12.064V12.096C14.584 12.272 15.448 13.36 15.448 14.848C15.448 16.896 13.784 18.192 11.624 18.192C9.544 18.192 8.184 17.232 7.736 15.536L9.784 14.992C10.024 15.936 10.6 16.464 11.624 16.464C12.664 16.464 13.528 15.744 13.528 14.688C13.528 13.6 12.856 12.96 10.952 12.96H10.552V11.232H10.872C11.944 11.232 13.256 11.2 13.256 9.696C13.256 8.8 12.568 8.208 11.64 8.208C10.888 8.208 10.232 8.656 9.944 9.456L7.912 8.912C8.36 7.36 9.752 6.48 11.544 6.48Z" fill="#1E262A"/>
</svg>
