<svg width="44" height="46" viewBox="0 0 44 46" fill="none" xmlns="http://www.w3.org/2000/svg">
<path d="M33.7398 29.4206C33.3347 27.0365 30.9365 25.4471 28.5539 25.9825C26.1893 26.5143 24.6951 28.944 25.3298 31.2645C25.7722 32.8827 26.8397 33.903 28.4481 34.3712C28.5816 34.4096 28.7931 34.3484 28.7847 34.6209C28.7354 36.2199 28.9037 37.8273 28.6922 39.4191C28.3075 42.317 25.6664 44.557 22.6804 44.5618C19.6715 44.5666 17.028 42.329 16.6349 39.4071C16.4306 37.8885 16.5988 36.358 16.5423 34.8334C16.5315 34.5261 16.6301 34.4456 16.9306 34.3988C19.8422 33.9463 22.2103 31.3233 22.2873 28.387C22.3474 26.0689 22.3233 23.7473 22.2933 21.4268C22.2752 20.0079 21.0876 18.8135 19.6751 18.7006C19.1197 18.6562 18.7591 18.8963 18.7122 19.3393C18.6665 19.781 18.967 20.0727 19.532 20.1328C20.2845 20.2132 20.8555 20.781 20.8592 21.5253C20.8712 23.8001 20.9084 26.0774 20.8423 28.3498C20.769 30.8491 18.604 32.9463 16.1036 33.0555C13.1993 33.1816 10.8263 30.9548 10.7974 28.0461C10.777 25.9801 10.7926 23.9154 10.7926 21.8494C10.7926 20.7414 11.1821 20.296 12.2965 20.1243C12.8026 20.0463 13.0827 19.5793 12.8867 19.134C12.7413 18.8039 12.4756 18.6886 12.127 18.6922C10.6327 18.709 9.36811 19.9935 9.35849 21.5505C9.34407 23.7653 9.33686 25.9813 9.3609 28.1961C9.39336 31.2417 11.7483 33.9391 14.7644 34.4012C15.0613 34.4468 15.1202 34.5513 15.1166 34.8226C15.1034 36.065 15.0722 37.3087 15.1202 38.55C15.2393 41.6495 16.7191 43.8895 19.4863 45.2941C20.1824 45.647 20.9517 45.7514 21.6778 45.9999H23.4762C23.6433 45.8319 23.8681 45.9171 24.0628 45.8775C27.7184 45.1236 30.2092 42.0949 30.2212 38.3687C30.2249 37.1863 30.2345 36.0038 30.2128 34.8214C30.208 34.5261 30.2946 34.4276 30.5759 34.352C32.8082 33.7518 34.1257 31.6858 33.7398 29.4206ZM30.2212 32.9451C30.2212 32.6678 30.2212 32.4289 30.2212 32.1888C30.2212 31.7783 30.2128 31.4229 30.5927 31.0772C31.1469 30.5718 31.0387 29.6727 30.4857 29.1493C29.9448 28.6367 29.1321 28.6187 28.5659 29.1073C27.9889 29.6055 27.8278 30.513 28.3724 31.0256C28.8112 31.4385 28.7799 31.8695 28.7823 32.3497C28.7823 32.5441 28.7823 32.7374 28.7823 32.9355C27.4588 32.6738 26.5055 31.3293 26.6329 29.9248C26.7628 28.4926 27.9889 27.3474 29.4242 27.3186C30.9185 27.2886 32.1759 28.375 32.3658 29.8587C32.5425 31.2489 31.6205 32.5958 30.2225 32.9451H30.2212Z" fill="#95E0DC"/>
<path d="M43.1705 5.79945C43.1705 4.12723 41.913 2.89557 40.2313 2.88357C39.2275 2.87637 38.2213 2.85836 37.2188 2.89437C36.7896 2.90998 36.6562 2.81034 36.6874 2.36858C36.7523 1.45504 36.3821 0.72637 35.5695 0.278605C34.0885 -0.537697 32.3923 0.533099 32.3802 2.27734C32.377 2.68149 32.1743 2.88357 31.772 2.88357H11.6245C11.0891 2.88357 10.8114 2.62067 10.7914 2.09488C10.7578 1.21615 10.2036 0.434662 9.37652 0.145355C8.49897 -0.161958 7.7224 0.0325136 7.07086 0.689156C6.59963 1.16453 6.41811 1.76235 6.48422 2.4154C6.5263 2.82715 6.37844 2.90398 5.99737 2.89197C5.03928 2.86316 4.07879 2.88117 3.1195 2.88237C1.19611 2.88477 0 4.06961 0 5.98071C0 15.8916 0 25.8024 0 35.7133C0 37.6232 1.19731 38.8117 3.11829 38.8129C6.29669 38.8141 9.47389 38.8129 12.6523 38.8129C12.7869 38.8129 12.9264 38.8273 13.0562 38.8009C13.4204 38.7276 13.644 38.4995 13.6633 38.125C13.6813 37.7697 13.4926 37.5212 13.1584 37.4155C13.0069 37.3675 12.8326 37.3783 12.6691 37.3783C9.47629 37.3759 6.28347 37.3783 3.09064 37.3771C1.99311 37.3771 1.43894 36.8189 1.43894 35.7157C1.43894 27.7964 1.44134 19.8759 1.42932 11.9565C1.42932 11.5832 1.51707 11.4968 1.88973 11.498C8.4557 11.5112 15.0217 11.5076 21.5876 11.5076C28.1536 11.5076 34.7196 11.5088 41.2855 11.5028C41.5933 11.5028 41.7459 11.5196 41.7447 11.9145C41.7303 19.8638 41.7339 27.8144 41.7327 35.7637C41.7327 36.8045 41.1617 37.3771 40.1231 37.3783C37.6046 37.3807 35.0862 37.3783 32.5678 37.3795C31.9932 37.3795 31.6698 37.6352 31.6626 38.0854C31.6542 38.5404 31.9799 38.8153 32.5437 38.8153C35.1066 38.8177 37.6708 38.8225 40.2337 38.8141C41.913 38.8081 43.168 37.5668 43.1693 35.8946C43.1753 25.8637 43.1753 15.8328 43.1693 5.80185L43.1705 5.79945ZM33.8216 2.26294C33.8276 1.76836 34.1029 1.45744 34.5236 1.44784C34.9612 1.43823 35.2545 1.75875 35.2569 2.27614C35.2629 3.39616 35.2617 4.51497 35.2569 5.63499C35.2545 6.15718 34.9696 6.4777 34.532 6.4729C34.0957 6.46809 33.8252 6.14878 33.8204 5.62058C33.8156 5.06838 33.8204 4.51617 33.8204 3.96397C33.8204 3.39736 33.8156 2.82955 33.8216 2.26294ZM7.91715 2.26774C7.91955 1.77196 8.19363 1.46104 8.61438 1.44784C9.05195 1.43463 9.34647 1.75755 9.35248 2.27254C9.35969 2.83915 9.35368 3.40696 9.35368 3.97357C9.35368 4.54018 9.36089 5.10799 9.35127 5.6746C9.34406 6.16198 9.05315 6.4741 8.63121 6.47169C8.20806 6.47049 7.91955 6.15958 7.91715 5.6686C7.90993 4.53418 7.91114 3.39976 7.91715 2.26534V2.26774ZM41.3577 10.073C38.1504 10.0658 34.9444 10.0682 31.7371 10.0682H21.5768C15.0133 10.0682 8.44969 10.0646 1.88612 10.0778C1.50746 10.0778 1.42211 9.98419 1.42932 9.61566C1.45456 8.3744 1.43653 7.13194 1.44014 5.88948C1.44254 4.91592 2.03278 4.3241 3.00289 4.3205C4.03671 4.3169 5.07173 4.3349 6.10435 4.3109C6.43854 4.30249 6.50225 4.41533 6.48182 4.71425C6.45657 5.08638 6.46619 5.46212 6.47941 5.83666C6.52029 6.99629 7.48679 7.91823 8.64683 7.91223C9.78644 7.90623 10.7409 6.99629 10.7878 5.85587C10.8046 5.43691 10.8022 5.01796 10.789 4.599C10.783 4.39613 10.8251 4.28329 11.0547 4.3181C11.128 4.3289 11.2037 4.3193 11.2795 4.3193C18.158 4.3193 25.0353 4.3241 31.9138 4.3085C32.3225 4.3085 32.4055 4.41894 32.3911 4.79828C32.373 5.28806 32.3225 5.78384 32.45 6.27242C32.7241 7.32641 33.7074 8.01907 34.7713 7.90262C35.8339 7.78618 36.661 6.89305 36.6946 5.81505C36.7067 5.42611 36.7199 5.03476 36.691 4.64822C36.6682 4.35171 36.7836 4.3097 37.0445 4.3133C38.1083 4.3277 39.1722 4.3133 40.2361 4.3217C41.1257 4.3289 41.7267 4.92912 41.7327 5.81985C41.7411 7.12234 41.7219 8.42362 41.7435 9.7261C41.7495 10.0526 41.6197 10.0742 41.3577 10.0742V10.073Z" fill="#95E0DC"/>
</svg>
