<svg width="61" height="61" viewBox="0 0 61 61" fill="none" xmlns="http://www.w3.org/2000/svg">
<rect x="0.75" y="0.5" width="60" height="60" rx="30" fill="#189510"/>
<path d="M45.8883 19.6932C45.6785 19.4818 45.429 19.3139 45.1541 19.1994C44.8792 19.0848 44.5843 19.0259 44.2864 19.0259C43.9886 19.0259 43.6937 19.0848 43.4188 19.1994C43.1439 19.3139 42.8943 19.4818 42.6846 19.6932L25.8767 36.5237L18.8151 29.4396C18.5973 29.2292 18.3403 29.0638 18.0586 28.9528C17.7769 28.8418 17.4761 28.7874 17.1734 28.7926C16.8707 28.7978 16.5719 28.8626 16.2943 28.9833C16.0166 29.104 15.7654 29.2782 15.555 29.496C15.3447 29.7137 15.1793 29.9708 15.0683 30.2525C14.9573 30.5342 14.9028 30.835 14.9081 31.1377C14.9133 31.4404 14.9781 31.7391 15.0988 32.0168C15.2195 32.2945 15.3937 32.5457 15.6114 32.756L24.2749 41.4194C24.4846 41.6309 24.7341 41.7987 25.009 41.9133C25.284 42.0278 25.5789 42.0868 25.8767 42.0868C26.1745 42.0868 26.4694 42.0278 26.7443 41.9133C27.0193 41.7987 27.2688 41.6309 27.4785 41.4194L45.8883 23.0097C46.1173 22.7984 46.3 22.542 46.425 22.2566C46.55 21.9712 46.6146 21.663 46.6146 21.3515C46.6146 21.0399 46.55 20.7317 46.425 20.4463C46.3 20.1609 46.1173 19.9045 45.8883 19.6932Z" fill="white"/>
</svg>
