<svg width="99" height="90" viewBox="0 0 99 90" fill="none" xmlns="http://www.w3.org/2000/svg">
<path d="M4.5016 22.6225C4.19665 22.4928 3.86859 22.4265 3.53615 22.4276C3.2037 22.4286 2.87339 22.4969 2.56407 22.6285C2.25474 22.7601 1.97247 22.9525 1.73335 23.1947C1.49424 23.4369 1.30297 23.7241 1.17047 24.04C1.03797 24.3558 0.966835 24.6941 0.96112 25.0356C0.955406 25.3771 1.01523 25.715 1.13717 26.03C1.25911 26.3451 1.44078 26.6312 1.67181 26.8719C1.90284 27.1126 2.17871 27.3032 2.48366 27.433L14.1066 32.3792C14.4116 32.5089 14.7396 32.5751 15.0721 32.5741C15.4045 32.5731 15.7348 32.5048 16.0442 32.3732C16.3535 32.2415 16.6358 32.0492 16.8749 31.807C17.114 31.5648 17.3053 31.2776 17.4378 30.9617C17.5703 30.6459 17.6414 30.3075 17.6471 29.9661C17.6528 29.6246 17.593 29.2867 17.4711 28.9717C17.3491 28.6566 17.1675 28.3705 16.9364 28.1298C16.7054 27.8891 16.4295 27.6984 16.1246 27.5687L4.5016 22.6225ZM6.32662 48.3371C5.67337 48.5102 5.10862 48.9415 4.75661 49.5359C4.40461 50.1304 4.29419 50.8393 4.44963 51.5069C4.60508 52.1744 5.01367 52.7457 5.58551 53.0953C6.15735 53.4448 6.8456 53.5439 7.49886 53.3708L14.8882 51.412C15.5414 51.2388 16.1062 50.8075 16.4582 50.2131C16.8102 49.6186 16.9206 48.9097 16.7652 48.2422C16.6097 47.5747 16.2011 47.0033 15.6293 46.6537C15.0575 46.3042 14.3692 46.2051 13.7159 46.3783L6.32662 48.3371ZM44.7915 11.4184C60.3042 7.30626 75.8237 15.6661 80.5473 30.5595L80.8765 31.6587L81.16 32.786L85.3704 50.8885L92.5319 60.8654C92.7061 61.1078 92.859 61.366 92.9887 61.6368L93.1683 62.0488L93.3613 62.6977C93.6146 63.8099 93.5007 64.9844 93.0375 66.0381C92.5743 67.0918 91.7878 67.9656 90.8004 68.5233L90.2606 68.8107L89.6073 69.0373L72.3607 73.6092L72.5236 74.4211C73.0693 77.667 72.3861 81.0295 70.6128 83.8247C68.8396 86.6199 66.1095 88.6378 62.978 89.4679C59.8465 90.298 56.5487 89.8781 53.7555 88.2934C50.9623 86.7087 48.8834 84.0783 47.9418 80.9374L47.7296 80.1385L30.4829 84.7104C30.0507 84.8261 29.6066 84.8827 29.1622 84.8787L28.501 84.8242C27.4068 84.6595 26.4029 84.1292 25.6434 83.3147C24.8839 82.5003 24.411 81.4468 24.2973 80.3162L24.2519 79.6495L24.3136 78.9491L26.2582 66.569L22.0349 48.4112L21.792 47.2784C18.7417 31.4177 28.8946 15.6325 44.7915 11.4184ZM67.4344 74.915L52.6558 78.8326L52.8556 79.5332C53.4272 81.2323 54.5603 82.6625 56.0609 83.5789C57.5614 84.4954 59.3362 84.8412 61.0812 84.557L61.7988 84.4042C63.6357 83.9172 65.2438 82.7485 66.3097 81.1261C67.3756 79.5037 67.8228 77.5439 67.5641 75.6289L67.4344 74.915ZM45.9638 16.4521C33.0423 19.8774 24.7199 32.3609 26.5715 45.0281L26.751 46.1135L26.9716 47.1506L31.3065 65.7652L31.3444 66.7813L29.3107 79.6767L88.2207 64.0711L88.44 64.0023L80.981 53.6233L80.5687 52.7065L76.2455 34.1422L75.9866 33.1206C72.4521 20.301 59.2498 12.9302 45.9638 16.4521ZM88.8965 0.785028C88.3802 0.354924 87.7145 0.156567 87.0458 0.233597C86.3771 0.310624 85.7603 0.656729 85.3309 1.19577L77.2293 11.3707C76.8 11.9098 76.5934 12.5976 76.6549 13.2829C76.7164 13.9682 77.041 14.5948 77.5573 15.0249C78.0736 15.455 78.7393 15.6533 79.408 15.5763C80.0767 15.4993 80.6935 15.1532 81.1229 14.6141L89.2245 4.43919C89.6538 3.90015 89.8604 3.21233 89.7989 2.52704C89.7374 1.84175 89.4128 1.21513 88.8965 0.785028ZM98.0477 26.6953C97.8923 26.0278 97.4837 25.4564 96.9118 25.1069C96.34 24.7573 95.6517 24.6582 94.9985 24.8314L87.6092 26.7902C86.9559 26.9634 86.3912 27.3946 86.0392 27.9891C85.6871 28.5835 85.5767 29.2925 85.7322 29.96C85.8876 30.6275 86.2962 31.1989 86.8681 31.5484C87.4399 31.898 88.1281 31.9971 88.7814 31.8239L96.1707 29.8651C96.824 29.6919 97.3887 29.2607 97.7407 28.6662C98.0927 28.0718 98.2032 27.3628 98.0477 26.6953Z" fill="#95E0DC"/>
</svg>
