<svg width="15" height="10" viewBox="0 0 15 10" fill="none" xmlns="http://www.w3.org/2000/svg">
<path d="M14.6046 1.00903C14.3542 0.746606 14.0156 0.599308 13.6626 0.599308C13.3096 0.599308 12.971 0.746606 12.7206 1.00903L7.92401 5.99686L3.19417 1.00903C2.94384 0.746606 2.6052 0.599308 2.25222 0.599308C1.89924 0.599308 1.5606 0.746606 1.31026 1.00903C1.18503 1.14002 1.08563 1.29585 1.01779 1.46755C0.949962 1.63925 0.915039 1.82341 0.915039 2.00941C0.915039 2.19542 0.949962 2.37958 1.01779 2.55128C1.08563 2.72298 1.18503 2.87881 1.31026 3.0098L6.97537 8.98392C7.09958 9.11598 7.24735 9.2208 7.41017 9.29233C7.57299 9.36386 7.74763 9.40069 7.92401 9.40069C8.10039 9.40069 8.27503 9.36386 8.43785 9.29233C8.60066 9.2208 8.74844 9.11598 8.87265 8.98392L14.6046 3.0098C14.7298 2.87881 14.8292 2.72298 14.897 2.55128C14.9649 2.37958 14.9998 2.19542 14.9998 2.00941C14.9998 1.82341 14.9649 1.63925 14.897 1.46755C14.8292 1.29585 14.7298 1.14002 14.6046 1.00903Z" fill="#4F4F4F"/>
</svg>
